# Unity FinishPoint Export (Right-Handed) - Collider Volumes + Materials
# Root Space: Helipad
mtllib Helipad_finish.mtl

# FinishPoint: finish
g finish_0
usemtl Lit_0
v -16.372890 8.585787 -26.952890
v -17.787110 8.585787 -28.367110
v -15.372890 10.000000 -27.952890
v -16.787110 10.000000 -29.367110
v -16.372890 11.414210 -26.952890
v -17.787110 11.414210 -28.367110
v -17.372890 10.000000 -25.952890
v -18.787110 10.000000 -27.367110
v -15.372890 10.000000 -27.952890
v -16.787110 10.000000 -29.367110
v -16.372890 11.414210 -26.952890
v -17.787110 11.414210 -28.367110
v -17.372890 10.000000 -25.952890
v -16.372890 8.585787 -26.952890
v -17.787110 8.585787 -28.367110
v -18.787110 10.000000 -27.367110
v -17.787110 8.585787 -28.367110
v -16.787110 10.000000 -29.367110
v -17.787110 11.414210 -28.367110
v -18.787110 10.000000 -27.367110
v -17.372890 10.000000 -25.952890
v -16.372890 11.414210 -26.952890
v -15.372890 10.000000 -27.952890
v -16.372890 8.585787 -26.952890
vn 0.500000 -0.707107 -0.500000
vn 0.500000 -0.707107 -0.500000
vn 0.500000 -0.707107 -0.500000
vn 0.500000 -0.707107 -0.500000
vn 0.500000 0.707107 -0.500000
vn 0.500000 0.707107 -0.500000
vn -0.500000 0.707107 0.500000
vn -0.500000 0.707107 0.500000
vn 0.500000 0.707107 -0.500000
vn 0.500000 0.707107 -0.500000
vn -0.500000 0.707107 0.500000
vn -0.500000 0.707107 0.500000
vn -0.500000 -0.707107 0.500000
vn -0.500000 -0.707107 0.500000
vn -0.500000 -0.707107 0.500000
vn -0.500000 -0.707107 0.500000
vn -0.707107 0.000000 -0.707107
vn -0.707107 0.000000 -0.707107
vn -0.707107 0.000000 -0.707107
vn -0.707107 0.000000 -0.707107
vn 0.707107 0.000000 0.707107
vn 0.707107 0.000000 0.707107
vn 0.707107 0.000000 0.707107
vn 0.707107 0.000000 0.707107
vt 0.000000 0.000000
vt 1.000000 0.000000
vt 0.000000 1.000000
vt 1.000000 1.000000
vt 0.000000 1.000000
vt 1.000000 1.000000
vt 0.000000 1.000000
vt 1.000000 1.000000
vt 0.000000 0.000000
vt 1.000000 0.000000
vt 0.000000 0.000000
vt 1.000000 0.000000
vt 0.000000 0.000000
vt 0.000000 1.000000
vt 1.000000 1.000000
vt 1.000000 0.000000
vt 0.000000 0.000000
vt 0.000000 1.000000
vt 1.000000 1.000000
vt 1.000000 0.000000
vt 0.000000 0.000000
vt 0.000000 1.000000
vt 1.000000 1.000000
vt 1.000000 0.000000
f 1/1/1 4/4/4 3/3/3
f 1/1/1 2/2/2 4/4/4
f 9/9/9 6/6/6 5/5/5
f 9/9/9 10/10/10 6/6/6
f 11/11/11 8/8/8 7/7/7
f 11/11/11 12/12/12 8/8/8
f 13/13/13 15/15/15 14/14/14
f 13/13/13 16/16/16 15/15/15
f 17/17/17 19/19/19 18/18/18
f 17/17/17 20/20/20 19/19/19
f 21/21/21 23/23/23 22/22/22
f 21/21/21 24/24/24 23/23/23
