{
  "asset":{"version":"2.0","generator":"Unity MultiObjectMapAndNavMeshExporter"},
  "scene":0,
  "scenes":[{"name":"Scene","nodes":[0]}],
  "nodes":[{"name":"Matrix","children":[1,2,3,4,5,6,7,8,9,10,11,12,13,14,15,16,17,18]},{"name":"floor_BoxCollider","mesh":0},{"name":"Cube_BoxCollider","mesh":1},{"name":"Cube (3)_BoxCollider","mesh":2},{"name":"Cube (1)_BoxCollider","mesh":3},{"name":"Cube (8)_BoxCollider","mesh":4},{"name":"Cube (16)_BoxCollider","mesh":5},{"name":"Cube (9)_BoxCollider","mesh":6},{"name":"Cube (10)_BoxCollider","mesh":7},{"name":"Cube (13)_BoxCollider","mesh":8},{"name":"Cube (14)_BoxCollider","mesh":9},{"name":"Cube (15)_BoxCollider","mesh":10},{"name":"Cube (11)_BoxCollider","mesh":11},{"name":"Cube (5)_BoxCollider","mesh":12},{"name":"Cube (6)_BoxCollider","mesh":13},{"name":"Cube (12)_BoxCollider","mesh":14},{"name":"Cube (17)_BoxCollider","mesh":15},{"name":"Cube (18)_BoxCollider","mesh":16},{"name":"Cube (7)_BoxCollider","mesh":17}],
  "meshes":[{"name":"floor_BoxCollider","primitives":[{"attributes":{"POSITION":0},"indices":1,"material":0}]},{"name":"Cube_BoxCollider","primitives":[{"attributes":{"POSITION":2},"indices":3,"material":1}]},{"name":"Cube (3)_BoxCollider","primitives":[{"attributes":{"POSITION":4},"indices":5,"material":2}]},{"name":"Cube (1)_BoxCollider","primitives":[{"attributes":{"POSITION":6},"indices":7,"material":3}]},{"name":"Cube (8)_BoxCollider","primitives":[{"attributes":{"POSITION":8},"indices":9,"material":4}]},{"name":"Cube (16)_BoxCollider","primitives":[{"attributes":{"POSITION":10},"indices":11,"material":5}]},{"name":"Cube (9)_BoxCollider","primitives":[{"attributes":{"POSITION":12},"indices":13,"material":6}]},{"name":"Cube (10)_BoxCollider","primitives":[{"attributes":{"POSITION":14},"indices":15,"material":7}]},{"name":"Cube (13)_BoxCollider","primitives":[{"attributes":{"POSITION":16},"indices":17,"material":8}]},{"name":"Cube (14)_BoxCollider","primitives":[{"attributes":{"POSITION":18},"indices":19,"material":9}]},{"name":"Cube (15)_BoxCollider","primitives":[{"attributes":{"POSITION":20},"indices":21,"material":10}]},{"name":"Cube (11)_BoxCollider","primitives":[{"attributes":{"POSITION":22},"indices":23,"material":11}]},{"name":"Cube (5)_BoxCollider","primitives":[{"attributes":{"POSITION":24},"indices":25,"material":12}]},{"name":"Cube (6)_BoxCollider","primitives":[{"attributes":{"POSITION":26},"indices":27,"material":13}]},{"name":"Cube (12)_BoxCollider","primitives":[{"attributes":{"POSITION":28},"indices":29,"material":14}]},{"name":"Cube (17)_BoxCollider","primitives":[{"attributes":{"POSITION":30},"indices":31,"material":15}]},{"name":"Cube (18)_BoxCollider","primitives":[{"attributes":{"POSITION":32},"indices":33,"material":16}]},{"name":"Cube (7)_BoxCollider","primitives":[{"attributes":{"POSITION":34},"indices":35,"material":17}]}],
  "accessors":[{"bufferView":0,"componentType":5126,"count":24,"type":"VEC3","min":[-20.0000095,4.5,-20.0000439],"max":[20.0000782,5.5,20.0000439]},{"bufferView":1,"componentType":5125,"count":36,"type":"SCALAR"},{"bufferView":2,"componentType":5126,"count":24,"type":"VEC3","min":[19.4999733,5,-20.9999981],"max":[20.5000954,11,34.0000076]},{"bufferView":3,"componentType":5125,"count":36,"type":"SCALAR"},{"bufferView":4,"componentType":5126,"count":24,"type":"VEC3","min":[-20.5000343,5,-21.0000114],"max":[-19.4999123,11,33.9999924]},{"bufferView":5,"componentType":5125,"count":36,"type":"SCALAR"},{"bufferView":6,"componentType":5126,"count":24,"type":"VEC3","min":[-19.499958,5,-21.0000839],"max":[20.5000458,11,-19.9999962]},{"bufferView":7,"componentType":5125,"count":36,"type":"SCALAR"},{"bufferView":8,"componentType":5126,"count":24,"type":"VEC3","min":[-7.49997282,2,19.9999752],"max":[7.50002909,12,21.0000095]},{"bufferView":9,"componentType":5125,"count":36,"type":"SCALAR"},{"bufferView":10,"componentType":5126,"count":24,"type":"VEC3","min":[-20.4999809,1,32.9999542],"max":[20.5000229,11,35.0000458]},{"bufferView":11,"componentType":5125,"count":36,"type":"SCALAR"},{"bufferView":12,"componentType":5126,"count":24,"type":"VEC3","min":[-19.4999924,4.5,19.999979],"max":[-7.49995947,5.5,35.0000076]},{"bufferView":13,"componentType":5125,"count":36,"type":"SCALAR"},{"bufferView":14,"componentType":5126,"count":24,"type":"VEC3","min":[7.50001478,4.5,19.9999905],"max":[19.5000477,5.5,35.0000153]},{"bufferView":15,"componentType":5125,"count":36,"type":"SCALAR"},{"bufferView":16,"componentType":5126,"count":24,"type":"VEC3","min":[-5.99999237,1.5,19.9999828],"max":[6.00004101,2.5,35.0000076]},{"bufferView":17,"componentType":5125,"count":36,"type":"SCALAR"},{"bufferView":18,"componentType":5126,"count":24,"type":"VEC3","min":[-8.02807045,1.6469872,19.9999962],"max":[-2.33188057,5.51300907,35.0000076]},{"bufferView":19,"componentType":5125,"count":36,"type":"SCALAR"},{"bufferView":20,"componentType":5126,"count":24,"type":"VEC3","min":[2.33193302,1.6469872,19.9999962],"max":[8.0281229,5.51300907,35.0000076]},{"bufferView":21,"componentType":5125,"count":36,"type":"SCALAR"},{"bufferView":22,"componentType":5126,"count":24,"type":"VEC3","min":[-10.4999743,5.5,2.77998447],"max":[-4.4999609,11.5,8.77999783]},{"bufferView":23,"componentType":5125,"count":36,"type":"SCALAR"},{"bufferView":24,"componentType":5126,"count":24,"type":"VEC3","min":[-10.4999714,5.5,-13.2200155],"max":[-4.49995756,11.5,-7.22000217]},{"bufferView":25,"componentType":5125,"count":36,"type":"SCALAR"},{"bufferView":26,"componentType":5126,"count":24,"type":"VEC3","min":[4.5000267,5.5,2.77998638],"max":[10.5000401,11.5,8.77999973]},{"bufferView":27,"componentType":5125,"count":36,"type":"SCALAR"},{"bufferView":28,"componentType":5126,"count":24,"type":"VEC3","min":[-19.4999657,5.5,-7.00001478],"max":[-16.499958,8.5,-4.00000811]},{"bufferView":29,"componentType":5125,"count":36,"type":"SCALAR"},{"bufferView":30,"componentType":5126,"count":24,"type":"VEC3","min":[-19.4999523,5.5,14.0000381],"max":[-16.4999485,8.5,17.000042]},{"bufferView":31,"componentType":5125,"count":36,"type":"SCALAR"},{"bufferView":32,"componentType":5126,"count":24,"type":"VEC3","min":[-19.4999657,5.5,16.5000362],"max":[-14.4999619,8.5,19.5000439]},{"bufferView":33,"componentType":5125,"count":36,"type":"SCALAR"},{"bufferView":34,"componentType":5126,"count":24,"type":"VEC3","min":[4.50002956,5.5,-13.2200117],"max":[10.5000429,11.5,-7.21999836]},{"bufferView":35,"componentType":5125,"count":36,"type":"SCALAR"}],
  "bufferViews":[{"buffer":0,"byteOffset":0,"byteLength":288,"target":34962},{"buffer":0,"byteOffset":288,"byteLength":144,"target":34963},{"buffer":0,"byteOffset":432,"byteLength":288,"target":34962},{"buffer":0,"byteOffset":720,"byteLength":144,"target":34963},{"buffer":0,"byteOffset":864,"byteLength":288,"target":34962},{"buffer":0,"byteOffset":1152,"byteLength":144,"target":34963},{"buffer":0,"byteOffset":1296,"byteLength":288,"target":34962},{"buffer":0,"byteOffset":1584,"byteLength":144,"target":34963},{"buffer":0,"byteOffset":1728,"byteLength":288,"target":34962},{"buffer":0,"byteOffset":2016,"byteLength":144,"target":34963},{"buffer":0,"byteOffset":2160,"byteLength":288,"target":34962},{"buffer":0,"byteOffset":2448,"byteLength":144,"target":34963},{"buffer":0,"byteOffset":2592,"byteLength":288,"target":34962},{"buffer":0,"byteOffset":2880,"byteLength":144,"target":34963},{"buffer":0,"byteOffset":3024,"byteLength":288,"target":34962},{"buffer":0,"byteOffset":3312,"byteLength":144,"target":34963},{"buffer":0,"byteOffset":3456,"byteLength":288,"target":34962},{"buffer":0,"byteOffset":3744,"byteLength":144,"target":34963},{"buffer":0,"byteOffset":3888,"byteLength":288,"target":34962},{"buffer":0,"byteOffset":4176,"byteLength":144,"target":34963},{"buffer":0,"byteOffset":4320,"byteLength":288,"target":34962},{"buffer":0,"byteOffset":4608,"byteLength":144,"target":34963},{"buffer":0,"byteOffset":4752,"byteLength":288,"target":34962},{"buffer":0,"byteOffset":5040,"byteLength":144,"target":34963},{"buffer":0,"byteOffset":5184,"byteLength":288,"target":34962},{"buffer":0,"byteOffset":5472,"byteLength":144,"target":34963},{"buffer":0,"byteOffset":5616,"byteLength":288,"target":34962},{"buffer":0,"byteOffset":5904,"byteLength":144,"target":34963},{"buffer":0,"byteOffset":6048,"byteLength":288,"target":34962},{"buffer":0,"byteOffset":6336,"byteLength":144,"target":34963},{"buffer":0,"byteOffset":6480,"byteLength":288,"target":34962},{"buffer":0,"byteOffset":6768,"byteLength":144,"target":34963},{"buffer":0,"byteOffset":6912,"byteLength":288,"target":34962},{"buffer":0,"byteOffset":7200,"byteLength":144,"target":34963},{"buffer":0,"byteOffset":7344,"byteLength":288,"target":34962},{"buffer":0,"byteOffset":7632,"byteLength":144,"target":34963}],
  "buffers":[{"uri":"Dock_collision.bin","byteLength":7776}],
  "materials":[{"name":"floor_BoxCollider_mat","pbrMetallicRoughness":{"baseColorFactor":[0.5000,0.5000,0.5000,1.0000],"metallicFactor":0,"roughnessFactor":1}},{"name":"Cube_BoxCollider_mat","pbrMetallicRoughness":{"baseColorFactor":[0.5000,0.5000,0.5000,1.0000],"metallicFactor":0,"roughnessFactor":1}},{"name":"Cube (3)_BoxCollider_mat","pbrMetallicRoughness":{"baseColorFactor":[0.5000,0.5000,0.5000,1.0000],"metallicFactor":0,"roughnessFactor":1}},{"name":"Cube (1)_BoxCollider_mat","pbrMetallicRoughness":{"baseColorFactor":[0.5000,0.5000,0.5000,1.0000],"metallicFactor":0,"roughnessFactor":1}},{"name":"Cube (8)_BoxCollider_mat","pbrMetallicRoughness":{"baseColorFactor":[0.5000,0.5000,0.5000,1.0000],"metallicFactor":0,"roughnessFactor":1}},{"name":"Cube (16)_BoxCollider_mat","pbrMetallicRoughness":{"baseColorFactor":[0.5000,0.5000,0.5000,1.0000],"metallicFactor":0,"roughnessFactor":1}},{"name":"Cube (9)_BoxCollider_mat","pbrMetallicRoughness":{"baseColorFactor":[0.5000,0.5000,0.5000,1.0000],"metallicFactor":0,"roughnessFactor":1}},{"name":"Cube (10)_BoxCollider_mat","pbrMetallicRoughness":{"baseColorFactor":[0.5000,0.5000,0.5000,1.0000],"metallicFactor":0,"roughnessFactor":1}},{"name":"Cube (13)_BoxCollider_mat","pbrMetallicRoughness":{"baseColorFactor":[0.5000,0.5000,0.5000,1.0000],"metallicFactor":0,"roughnessFactor":1}},{"name":"Cube (14)_BoxCollider_mat","pbrMetallicRoughness":{"baseColorFactor":[0.5000,0.5000,0.5000,1.0000],"metallicFactor":0,"roughnessFactor":1}},{"name":"Cube (15)_BoxCollider_mat","pbrMetallicRoughness":{"baseColorFactor":[0.5000,0.5000,0.5000,1.0000],"metallicFactor":0,"roughnessFactor":1}},{"name":"Cube (11)_BoxCollider_mat","pbrMetallicRoughness":{"baseColorFactor":[0.5000,0.5000,0.5000,1.0000],"metallicFactor":0,"roughnessFactor":1}},{"name":"Cube (5)_BoxCollider_mat","pbrMetallicRoughness":{"baseColorFactor":[0.5000,0.5000,0.5000,1.0000],"metallicFactor":0,"roughnessFactor":1}},{"name":"Cube (6)_BoxCollider_mat","pbrMetallicRoughness":{"baseColorFactor":[0.5000,0.5000,0.5000,1.0000],"metallicFactor":0,"roughnessFactor":1}},{"name":"Cube (12)_BoxCollider_mat","pbrMetallicRoughness":{"baseColorFactor":[0.5000,0.5000,0.5000,1.0000],"metallicFactor":0,"roughnessFactor":1}},{"name":"Cube (17)_BoxCollider_mat","pbrMetallicRoughness":{"baseColorFactor":[0.5000,0.5000,0.5000,1.0000],"metallicFactor":0,"roughnessFactor":1}},{"name":"Cube (18)_BoxCollider_mat","pbrMetallicRoughness":{"baseColorFactor":[0.5000,0.5000,0.5000,1.0000],"metallicFactor":0,"roughnessFactor":1}},{"name":"Cube (7)_BoxCollider_mat","pbrMetallicRoughness":{"baseColorFactor":[0.5000,0.5000,0.5000,1.0000],"metallicFactor":0,"roughnessFactor":1}}]
}
