{
  "asset":{"version":"2.0","generator":"Unity MultiObjectMapAndNavMeshExporter"},
  "scene":0,
  "scenes":[{"name":"Scene","nodes":[0]}],
  "nodes":[{"name":"HangerB","children":[1,2,3,4,5,6,7,8,9,10,11,12,13,14,15,16,17,18,19,20,21,22]},{"name":"Cube_BoxCollider","mesh":0},{"name":"Cube (1)_BoxCollider","mesh":1},{"name":"Cube (4)_BoxCollider","mesh":2},{"name":"Cube (3)_BoxCollider","mesh":3},{"name":"Cube (5)_BoxCollider","mesh":4},{"name":"Cube (6)_BoxCollider","mesh":5},{"name":"Cube (7)_BoxCollider","mesh":6},{"name":"Cube (10)_BoxCollider","mesh":7},{"name":"Cube (8)_BoxCollider","mesh":8},{"name":"Cube (12)_BoxCollider","mesh":9},{"name":"Cube (13)_BoxCollider","mesh":10},{"name":"Cube (14)_BoxCollider","mesh":11},{"name":"Cube (16)_BoxCollider","mesh":12},{"name":"Cube (9)_BoxCollider","mesh":13},{"name":"Cube (11)_BoxCollider","mesh":14},{"name":"Cube (18)_BoxCollider","mesh":15},{"name":"Cube (19)_BoxCollider","mesh":16},{"name":"Cube (20)_BoxCollider","mesh":17},{"name":"Cube (24)_BoxCollider","mesh":18},{"name":"Cube (21)_BoxCollider","mesh":19},{"name":"Cube (22)_BoxCollider","mesh":20},{"name":"Cube (23)_BoxCollider","mesh":21}],
  "meshes":[{"name":"Cube_BoxCollider","primitives":[{"attributes":{"POSITION":0},"indices":1,"material":0}]},{"name":"Cube (1)_BoxCollider","primitives":[{"attributes":{"POSITION":2},"indices":3,"material":1}]},{"name":"Cube (4)_BoxCollider","primitives":[{"attributes":{"POSITION":4},"indices":5,"material":2}]},{"name":"Cube (3)_BoxCollider","primitives":[{"attributes":{"POSITION":6},"indices":7,"material":3}]},{"name":"Cube (5)_BoxCollider","primitives":[{"attributes":{"POSITION":8},"indices":9,"material":4}]},{"name":"Cube (6)_BoxCollider","primitives":[{"attributes":{"POSITION":10},"indices":11,"material":5}]},{"name":"Cube (7)_BoxCollider","primitives":[{"attributes":{"POSITION":12},"indices":13,"material":6}]},{"name":"Cube (10)_BoxCollider","primitives":[{"attributes":{"POSITION":14},"indices":15,"material":7}]},{"name":"Cube (8)_BoxCollider","primitives":[{"attributes":{"POSITION":16},"indices":17,"material":8}]},{"name":"Cube (12)_BoxCollider","primitives":[{"attributes":{"POSITION":18},"indices":19,"material":9}]},{"name":"Cube (13)_BoxCollider","primitives":[{"attributes":{"POSITION":20},"indices":21,"material":10}]},{"name":"Cube (14)_BoxCollider","primitives":[{"attributes":{"POSITION":22},"indices":23,"material":11}]},{"name":"Cube (16)_BoxCollider","primitives":[{"attributes":{"POSITION":24},"indices":25,"material":12}]},{"name":"Cube (9)_BoxCollider","primitives":[{"attributes":{"POSITION":26},"indices":27,"material":13}]},{"name":"Cube (11)_BoxCollider","primitives":[{"attributes":{"POSITION":28},"indices":29,"material":14}]},{"name":"Cube (18)_BoxCollider","primitives":[{"attributes":{"POSITION":30},"indices":31,"material":15}]},{"name":"Cube (19)_BoxCollider","primitives":[{"attributes":{"POSITION":32},"indices":33,"material":16}]},{"name":"Cube (20)_BoxCollider","primitives":[{"attributes":{"POSITION":34},"indices":35,"material":17}]},{"name":"Cube (24)_BoxCollider","primitives":[{"attributes":{"POSITION":36},"indices":37,"material":18}]},{"name":"Cube (21)_BoxCollider","primitives":[{"attributes":{"POSITION":38},"indices":39,"material":19}]},{"name":"Cube (22)_BoxCollider","primitives":[{"attributes":{"POSITION":40},"indices":41,"material":20}]},{"name":"Cube (23)_BoxCollider","primitives":[{"attributes":{"POSITION":42},"indices":43,"material":21}]}],
  "accessors":[{"bufferView":0,"componentType":5126,"count":24,"type":"VEC3","min":[-25,-0.5,-25],"max":[25,0.5,25]},{"bufferView":1,"componentType":5125,"count":36,"type":"SCALAR"},{"bufferView":2,"componentType":5126,"count":24,"type":"VEC3","min":[-25,0,25.0100002],"max":[25,20,26.0100002]},{"bufferView":3,"componentType":5125,"count":36,"type":"SCALAR"},{"bufferView":4,"componentType":5126,"count":24,"type":"VEC3","min":[-25,0,-26],"max":[25,20,-25]},{"bufferView":5,"componentType":5125,"count":36,"type":"SCALAR"},{"bufferView":6,"componentType":5126,"count":24,"type":"VEC3","min":[-26,0,-25],"max":[-25,20,25]},{"bufferView":7,"componentType":5125,"count":36,"type":"SCALAR"},{"bufferView":8,"componentType":5126,"count":24,"type":"VEC3","min":[25,0,-25],"max":[26,20,25]},{"bufferView":9,"componentType":5125,"count":36,"type":"SCALAR"},{"bufferView":10,"componentType":5126,"count":24,"type":"VEC3","min":[-25,0.5,-25],"max":[-5,20.5,-17]},{"bufferView":11,"componentType":5125,"count":36,"type":"SCALAR"},{"bufferView":12,"componentType":5126,"count":24,"type":"VEC3","min":[-20,9.5,-17],"max":[-5,10.5,-12]},{"bufferView":13,"componentType":5125,"count":36,"type":"SCALAR"},{"bufferView":14,"componentType":5126,"count":24,"type":"VEC3","min":[0,9.5,-25],"max":[20,10.5,-20]},{"bufferView":15,"componentType":5125,"count":36,"type":"SCALAR"},{"bufferView":16,"componentType":5126,"count":24,"type":"VEC3","min":[-25,9.5,-17],"max":[-20,10.5,-2]},{"bufferView":17,"componentType":5125,"count":36,"type":"SCALAR"},{"bufferView":18,"componentType":5126,"count":24,"type":"VEC3","min":[-24.9999981,4.5,5.5],"max":[-19.9999981,5.5,10.5]},{"bufferView":19,"componentType":5125,"count":36,"type":"SCALAR"},{"bufferView":20,"componentType":5126,"count":24,"type":"VEC3","min":[-24.9999981,4.6269908,-2.51012969],"max":[-19.9999981,10.4930096,6.65012932]},{"bufferView":21,"componentType":5125,"count":36,"type":"SCALAR"},{"bufferView":22,"componentType":5126,"count":24,"type":"VEC3","min":[-24.9999981,-0.363009214,9.95987034],"max":[-19.9999981,5.50300884,19.1201286]},{"bufferView":23,"componentType":5125,"count":36,"type":"SCALAR"},{"bufferView":24,"componentType":5126,"count":24,"type":"VEC3","min":[19.9999981,-0.353005409,-12.5302591],"max":[25.0000019,10.5130053,5.29025936]},{"bufferView":25,"componentType":5125,"count":36,"type":"SCALAR"},{"bufferView":26,"componentType":5126,"count":24,"type":"VEC3","min":[-5.00000048,9.5,-25],"max":[4.76837158E-07,10.5,-12]},{"bufferView":27,"componentType":5125,"count":36,"type":"SCALAR"},{"bufferView":28,"componentType":5126,"count":24,"type":"VEC3","min":[20,9.5,-25.0000019],"max":[25,10.5,-12.0000019]},{"bufferView":29,"componentType":5125,"count":36,"type":"SCALAR"},{"bufferView":30,"componentType":5126,"count":24,"type":"VEC3","min":[-16,1,-5],"max":[-14,3,15]},{"bufferView":31,"componentType":5125,"count":36,"type":"SCALAR"},{"bufferView":32,"componentType":5126,"count":24,"type":"VEC3","min":[-10,1,-5],"max":[-8,3,15]},{"bufferView":33,"componentType":5125,"count":36,"type":"SCALAR"},{"bufferView":34,"componentType":5126,"count":24,"type":"VEC3","min":[-4,1,-5],"max":[-2,3,15]},{"bufferView":35,"componentType":5125,"count":36,"type":"SCALAR"},{"bufferView":36,"componentType":5126,"count":24,"type":"VEC3","min":[18.5,0.5,17],"max":[25.5,3.5,19]},{"bufferView":37,"componentType":5125,"count":36,"type":"SCALAR"},{"bufferView":38,"componentType":5126,"count":24,"type":"VEC3","min":[5.5,0.5,-10],"max":[6.5,5.5,-2]},{"bufferView":39,"componentType":5125,"count":36,"type":"SCALAR"},{"bufferView":40,"componentType":5126,"count":24,"type":"VEC3","min":[11.5,0.5,-10],"max":[12.5,5.5,-2]},{"bufferView":41,"componentType":5125,"count":36,"type":"SCALAR"},{"bufferView":42,"componentType":5126,"count":24,"type":"VEC3","min":[6.5,0.5,-10],"max":[11.5,5.5,-9]},{"bufferView":43,"componentType":5125,"count":36,"type":"SCALAR"}],
  "bufferViews":[{"buffer":0,"byteOffset":0,"byteLength":288,"target":34962},{"buffer":0,"byteOffset":288,"byteLength":144,"target":34963},{"buffer":0,"byteOffset":432,"byteLength":288,"target":34962},{"buffer":0,"byteOffset":720,"byteLength":144,"target":34963},{"buffer":0,"byteOffset":864,"byteLength":288,"target":34962},{"buffer":0,"byteOffset":1152,"byteLength":144,"target":34963},{"buffer":0,"byteOffset":1296,"byteLength":288,"target":34962},{"buffer":0,"byteOffset":1584,"byteLength":144,"target":34963},{"buffer":0,"byteOffset":1728,"byteLength":288,"target":34962},{"buffer":0,"byteOffset":2016,"byteLength":144,"target":34963},{"buffer":0,"byteOffset":2160,"byteLength":288,"target":34962},{"buffer":0,"byteOffset":2448,"byteLength":144,"target":34963},{"buffer":0,"byteOffset":2592,"byteLength":288,"target":34962},{"buffer":0,"byteOffset":2880,"byteLength":144,"target":34963},{"buffer":0,"byteOffset":3024,"byteLength":288,"target":34962},{"buffer":0,"byteOffset":3312,"byteLength":144,"target":34963},{"buffer":0,"byteOffset":3456,"byteLength":288,"target":34962},{"buffer":0,"byteOffset":3744,"byteLength":144,"target":34963},{"buffer":0,"byteOffset":3888,"byteLength":288,"target":34962},{"buffer":0,"byteOffset":4176,"byteLength":144,"target":34963},{"buffer":0,"byteOffset":4320,"byteLength":288,"target":34962},{"buffer":0,"byteOffset":4608,"byteLength":144,"target":34963},{"buffer":0,"byteOffset":4752,"byteLength":288,"target":34962},{"buffer":0,"byteOffset":5040,"byteLength":144,"target":34963},{"buffer":0,"byteOffset":5184,"byteLength":288,"target":34962},{"buffer":0,"byteOffset":5472,"byteLength":144,"target":34963},{"buffer":0,"byteOffset":5616,"byteLength":288,"target":34962},{"buffer":0,"byteOffset":5904,"byteLength":144,"target":34963},{"buffer":0,"byteOffset":6048,"byteLength":288,"target":34962},{"buffer":0,"byteOffset":6336,"byteLength":144,"target":34963},{"buffer":0,"byteOffset":6480,"byteLength":288,"target":34962},{"buffer":0,"byteOffset":6768,"byteLength":144,"target":34963},{"buffer":0,"byteOffset":6912,"byteLength":288,"target":34962},{"buffer":0,"byteOffset":7200,"byteLength":144,"target":34963},{"buffer":0,"byteOffset":7344,"byteLength":288,"target":34962},{"buffer":0,"byteOffset":7632,"byteLength":144,"target":34963},{"buffer":0,"byteOffset":7776,"byteLength":288,"target":34962},{"buffer":0,"byteOffset":8064,"byteLength":144,"target":34963},{"buffer":0,"byteOffset":8208,"byteLength":288,"target":34962},{"buffer":0,"byteOffset":8496,"byteLength":144,"target":34963},{"buffer":0,"byteOffset":8640,"byteLength":288,"target":34962},{"buffer":0,"byteOffset":8928,"byteLength":144,"target":34963},{"buffer":0,"byteOffset":9072,"byteLength":288,"target":34962},{"buffer":0,"byteOffset":9360,"byteLength":144,"target":34963}],
  "buffers":[{"uri":"HangerB_collision.bin","byteLength":9504}],
  "materials":[{"name":"Cube_BoxCollider_mat","pbrMetallicRoughness":{"baseColorFactor":[0.5000,0.5000,0.5000,1.0000],"metallicFactor":0,"roughnessFactor":1}},{"name":"Cube (1)_BoxCollider_mat","pbrMetallicRoughness":{"baseColorFactor":[0.5000,0.5000,0.5000,1.0000],"metallicFactor":0,"roughnessFactor":1}},{"name":"Cube (4)_BoxCollider_mat","pbrMetallicRoughness":{"baseColorFactor":[0.5000,0.5000,0.5000,1.0000],"metallicFactor":0,"roughnessFactor":1}},{"name":"Cube (3)_BoxCollider_mat","pbrMetallicRoughness":{"baseColorFactor":[0.5000,0.5000,0.5000,1.0000],"metallicFactor":0,"roughnessFactor":1}},{"name":"Cube (5)_BoxCollider_mat","pbrMetallicRoughness":{"baseColorFactor":[0.5000,0.5000,0.5000,1.0000],"metallicFactor":0,"roughnessFactor":1}},{"name":"Cube (6)_BoxCollider_mat","pbrMetallicRoughness":{"baseColorFactor":[0.5000,0.5000,0.5000,1.0000],"metallicFactor":0,"roughnessFactor":1}},{"name":"Cube (7)_BoxCollider_mat","pbrMetallicRoughness":{"baseColorFactor":[0.5000,0.5000,0.5000,1.0000],"metallicFactor":0,"roughnessFactor":1}},{"name":"Cube (10)_BoxCollider_mat","pbrMetallicRoughness":{"baseColorFactor":[0.5000,0.5000,0.5000,1.0000],"metallicFactor":0,"roughnessFactor":1}},{"name":"Cube (8)_BoxCollider_mat","pbrMetallicRoughness":{"baseColorFactor":[0.5000,0.5000,0.5000,1.0000],"metallicFactor":0,"roughnessFactor":1}},{"name":"Cube (12)_BoxCollider_mat","pbrMetallicRoughness":{"baseColorFactor":[0.5000,0.5000,0.5000,1.0000],"metallicFactor":0,"roughnessFactor":1}},{"name":"Cube (13)_BoxCollider_mat","pbrMetallicRoughness":{"baseColorFactor":[0.5000,0.5000,0.5000,1.0000],"metallicFactor":0,"roughnessFactor":1}},{"name":"Cube (14)_BoxCollider_mat","pbrMetallicRoughness":{"baseColorFactor":[0.5000,0.5000,0.5000,1.0000],"metallicFactor":0,"roughnessFactor":1}},{"name":"Cube (16)_BoxCollider_mat","pbrMetallicRoughness":{"baseColorFactor":[0.5000,0.5000,0.5000,1.0000],"metallicFactor":0,"roughnessFactor":1}},{"name":"Cube (9)_BoxCollider_mat","pbrMetallicRoughness":{"baseColorFactor":[0.5000,0.5000,0.5000,1.0000],"metallicFactor":0,"roughnessFactor":1}},{"name":"Cube (11)_BoxCollider_mat","pbrMetallicRoughness":{"baseColorFactor":[0.5000,0.5000,0.5000,1.0000],"metallicFactor":0,"roughnessFactor":1}},{"name":"Cube (18)_BoxCollider_mat","pbrMetallicRoughness":{"baseColorFactor":[0.5000,0.5000,0.5000,1.0000],"metallicFactor":0,"roughnessFactor":1}},{"name":"Cube (19)_BoxCollider_mat","pbrMetallicRoughness":{"baseColorFactor":[0.5000,0.5000,0.5000,1.0000],"metallicFactor":0,"roughnessFactor":1}},{"name":"Cube (20)_BoxCollider_mat","pbrMetallicRoughness":{"baseColorFactor":[0.5000,0.5000,0.5000,1.0000],"metallicFactor":0,"roughnessFactor":1}},{"name":"Cube (24)_BoxCollider_mat","pbrMetallicRoughness":{"baseColorFactor":[0.5000,0.5000,0.5000,1.0000],"metallicFactor":0,"roughnessFactor":1}},{"name":"Cube (21)_BoxCollider_mat","pbrMetallicRoughness":{"baseColorFactor":[0.5000,0.5000,0.5000,1.0000],"metallicFactor":0,"roughnessFactor":1}},{"name":"Cube (22)_BoxCollider_mat","pbrMetallicRoughness":{"baseColorFactor":[0.5000,0.5000,0.5000,1.0000],"metallicFactor":0,"roughnessFactor":1}},{"name":"Cube (23)_BoxCollider_mat","pbrMetallicRoughness":{"baseColorFactor":[0.5000,0.5000,0.5000,1.0000],"metallicFactor":0,"roughnessFactor":1}}]
}
