{
  "asset":{"version":"2.0","generator":"Unity MultiObjectMapAndNavMeshExporter"},
  "scene":0,
  "scenes":[{"name":"Scene","nodes":[0]}],
  "nodes":[{"name":"HangerA","children":[1,2,3,4,5,6,7,8,9,10,11,12,13,14,15,16,17,18]},{"name":"Cube_BoxCollider","mesh":0},{"name":"Cube (1)_BoxCollider","mesh":1},{"name":"Cube (2)_BoxCollider","mesh":2},{"name":"Cube (3)_BoxCollider","mesh":3},{"name":"Cube (4)_BoxCollider","mesh":4},{"name":"Cube (5)_BoxCollider","mesh":5},{"name":"Cube (6)_BoxCollider","mesh":6},{"name":"Cube (7)_BoxCollider","mesh":7},{"name":"Cube (8)_BoxCollider","mesh":8},{"name":"Cube (9)_BoxCollider","mesh":9},{"name":"Cube (11)_BoxCollider","mesh":10},{"name":"Cube (12)_BoxCollider","mesh":11},{"name":"Cube (13)_BoxCollider","mesh":12},{"name":"Cube (14)_BoxCollider","mesh":13},{"name":"Cube (15)_BoxCollider","mesh":14},{"name":"Cube (16)_BoxCollider","mesh":15},{"name":"Cube (10)_BoxCollider","mesh":16},{"name":"floor_BoxCollider","mesh":17}],
  "meshes":[{"name":"Cube_BoxCollider","primitives":[{"attributes":{"POSITION":0},"indices":1,"material":0}]},{"name":"Cube (1)_BoxCollider","primitives":[{"attributes":{"POSITION":2},"indices":3,"material":1}]},{"name":"Cube (2)_BoxCollider","primitives":[{"attributes":{"POSITION":4},"indices":5,"material":2}]},{"name":"Cube (3)_BoxCollider","primitives":[{"attributes":{"POSITION":6},"indices":7,"material":3}]},{"name":"Cube (4)_BoxCollider","primitives":[{"attributes":{"POSITION":8},"indices":9,"material":4}]},{"name":"Cube (5)_BoxCollider","primitives":[{"attributes":{"POSITION":10},"indices":11,"material":5}]},{"name":"Cube (6)_BoxCollider","primitives":[{"attributes":{"POSITION":12},"indices":13,"material":6}]},{"name":"Cube (7)_BoxCollider","primitives":[{"attributes":{"POSITION":14},"indices":15,"material":7}]},{"name":"Cube (8)_BoxCollider","primitives":[{"attributes":{"POSITION":16},"indices":17,"material":8}]},{"name":"Cube (9)_BoxCollider","primitives":[{"attributes":{"POSITION":18},"indices":19,"material":9}]},{"name":"Cube (11)_BoxCollider","primitives":[{"attributes":{"POSITION":20},"indices":21,"material":10}]},{"name":"Cube (12)_BoxCollider","primitives":[{"attributes":{"POSITION":22},"indices":23,"material":11}]},{"name":"Cube (13)_BoxCollider","primitives":[{"attributes":{"POSITION":24},"indices":25,"material":12}]},{"name":"Cube (14)_BoxCollider","primitives":[{"attributes":{"POSITION":26},"indices":27,"material":13}]},{"name":"Cube (15)_BoxCollider","primitives":[{"attributes":{"POSITION":28},"indices":29,"material":14}]},{"name":"Cube (16)_BoxCollider","primitives":[{"attributes":{"POSITION":30},"indices":31,"material":15}]},{"name":"Cube (10)_BoxCollider","primitives":[{"attributes":{"POSITION":32},"indices":33,"material":16}]},{"name":"floor_BoxCollider","primitives":[{"attributes":{"POSITION":34},"indices":35,"material":17}]}],
  "accessors":[{"bufferView":0,"componentType":5126,"count":24,"type":"VEC3","min":[-15,-9.53674316E-07,14.5000029],"max":[15,10,15.5000038]},{"bufferView":1,"componentType":5125,"count":36,"type":"SCALAR"},{"bufferView":2,"componentType":5126,"count":24,"type":"VEC3","min":[-15,-9.53674316E-07,-15.5000048],"max":[15,10.000001,-14.5000038]},{"bufferView":3,"componentType":5125,"count":36,"type":"SCALAR"},{"bufferView":4,"componentType":5126,"count":24,"type":"VEC3","min":[-15.5,9.53674316E-07,-15.0000048],"max":[-14.5,10.0000019,15.0000038]},{"bufferView":5,"componentType":5125,"count":36,"type":"SCALAR"},{"bufferView":6,"componentType":5126,"count":24,"type":"VEC3","min":[14.5,9.53674316E-07,-14.5000038],"max":[15.5,10.000001,15.5000057]},{"bufferView":7,"componentType":5125,"count":36,"type":"SCALAR"},{"bufferView":8,"componentType":5126,"count":24,"type":"VEC3","min":[-9.45000458,0,-7.78000307],"max":[-2.44999504,2,2.2200036]},{"bufferView":9,"componentType":5125,"count":36,"type":"SCALAR"},{"bufferView":10,"componentType":5126,"count":24,"type":"VEC3","min":[1.52516985,0,-8.81549263],"max":[10.8748302,2,2.65549278]},{"bufferView":11,"componentType":5125,"count":36,"type":"SCALAR"},{"bufferView":12,"componentType":5126,"count":24,"type":"VEC3","min":[-11.5160761,-1.06201017,5.40792227],"max":[-8.51607609,2.80401087,11.1040764]},{"bufferView":13,"componentType":5125,"count":36,"type":"SCALAR"},{"bufferView":14,"componentType":5126,"count":24,"type":"VEC3","min":[-14.5660763,1.36373711,5.37932348],"max":[-11.5660763,5.49026299,11.5266762]},{"bufferView":15,"componentType":5125,"count":36,"type":"SCALAR"},{"bufferView":16,"componentType":5126,"count":24,"type":"VEC3","min":[-14.4860754,1.80999947,10.5990391],"max":[-8.4860754,2.80999947,14.5990391]},{"bufferView":17,"componentType":5125,"count":36,"type":"SCALAR"},{"bufferView":18,"componentType":5126,"count":24,"type":"VEC3","min":[-14.5,4.5,-6.43368053],"max":[-11.5,5.5,5.89367962]},{"bufferView":19,"componentType":5125,"count":36,"type":"SCALAR"},{"bufferView":20,"componentType":5126,"count":24,"type":"VEC3","min":[11.5,4.5,-6.73999977],"max":[14.5,5.5,9.26000023]},{"bufferView":21,"componentType":5125,"count":36,"type":"SCALAR"},{"bufferView":22,"componentType":5126,"count":24,"type":"VEC3","min":[-11.5500002,5.34000015,-6.43368053],"max":[-11.4499998,6.34000015,5.89367962]},{"bufferView":23,"componentType":5125,"count":36,"type":"SCALAR"},{"bufferView":24,"componentType":5126,"count":24,"type":"VEC3","min":[11.9499998,5.34000015,-6.73999977],"max":[12.0500002,6.34000015,9.26000023]},{"bufferView":25,"componentType":5125,"count":36,"type":"SCALAR"},{"bufferView":26,"componentType":5126,"count":24,"type":"VEC3","min":[-11,5.5,-6.55000019],"max":[11,6.5,-6.44999981]},{"bufferView":27,"componentType":5125,"count":36,"type":"SCALAR"},{"bufferView":28,"componentType":5126,"count":24,"type":"VEC3","min":[-14.5,5.5,-9.55000019],"max":[14.5,6.5,-9.44999981]},{"bufferView":29,"componentType":5125,"count":36,"type":"SCALAR"},{"bufferView":30,"componentType":5126,"count":24,"type":"VEC3","min":[11.5,5.5,8.94999981],"max":[14.5,6.5,9.05000019]},{"bufferView":31,"componentType":5125,"count":36,"type":"SCALAR"},{"bufferView":32,"componentType":5126,"count":24,"type":"VEC3","min":[-15,4.5,-9.5],"max":[15,5.5,-6.5]},{"bufferView":33,"componentType":5125,"count":36,"type":"SCALAR"},{"bufferView":34,"componentType":5126,"count":24,"type":"VEC3","min":[-15,-1,-15],"max":[15,0,15]},{"bufferView":35,"componentType":5125,"count":36,"type":"SCALAR"}],
  "bufferViews":[{"buffer":0,"byteOffset":0,"byteLength":288,"target":34962},{"buffer":0,"byteOffset":288,"byteLength":144,"target":34963},{"buffer":0,"byteOffset":432,"byteLength":288,"target":34962},{"buffer":0,"byteOffset":720,"byteLength":144,"target":34963},{"buffer":0,"byteOffset":864,"byteLength":288,"target":34962},{"buffer":0,"byteOffset":1152,"byteLength":144,"target":34963},{"buffer":0,"byteOffset":1296,"byteLength":288,"target":34962},{"buffer":0,"byteOffset":1584,"byteLength":144,"target":34963},{"buffer":0,"byteOffset":1728,"byteLength":288,"target":34962},{"buffer":0,"byteOffset":2016,"byteLength":144,"target":34963},{"buffer":0,"byteOffset":2160,"byteLength":288,"target":34962},{"buffer":0,"byteOffset":2448,"byteLength":144,"target":34963},{"buffer":0,"byteOffset":2592,"byteLength":288,"target":34962},{"buffer":0,"byteOffset":2880,"byteLength":144,"target":34963},{"buffer":0,"byteOffset":3024,"byteLength":288,"target":34962},{"buffer":0,"byteOffset":3312,"byteLength":144,"target":34963},{"buffer":0,"byteOffset":3456,"byteLength":288,"target":34962},{"buffer":0,"byteOffset":3744,"byteLength":144,"target":34963},{"buffer":0,"byteOffset":3888,"byteLength":288,"target":34962},{"buffer":0,"byteOffset":4176,"byteLength":144,"target":34963},{"buffer":0,"byteOffset":4320,"byteLength":288,"target":34962},{"buffer":0,"byteOffset":4608,"byteLength":144,"target":34963},{"buffer":0,"byteOffset":4752,"byteLength":288,"target":34962},{"buffer":0,"byteOffset":5040,"byteLength":144,"target":34963},{"buffer":0,"byteOffset":5184,"byteLength":288,"target":34962},{"buffer":0,"byteOffset":5472,"byteLength":144,"target":34963},{"buffer":0,"byteOffset":5616,"byteLength":288,"target":34962},{"buffer":0,"byteOffset":5904,"byteLength":144,"target":34963},{"buffer":0,"byteOffset":6048,"byteLength":288,"target":34962},{"buffer":0,"byteOffset":6336,"byteLength":144,"target":34963},{"buffer":0,"byteOffset":6480,"byteLength":288,"target":34962},{"buffer":0,"byteOffset":6768,"byteLength":144,"target":34963},{"buffer":0,"byteOffset":6912,"byteLength":288,"target":34962},{"buffer":0,"byteOffset":7200,"byteLength":144,"target":34963},{"buffer":0,"byteOffset":7344,"byteLength":288,"target":34962},{"buffer":0,"byteOffset":7632,"byteLength":144,"target":34963}],
  "buffers":[{"uri":"HangerA_collision.bin","byteLength":7776}],
  "materials":[{"name":"Cube_BoxCollider_mat","pbrMetallicRoughness":{"baseColorFactor":[0.5000,0.5000,0.5000,1.0000],"metallicFactor":0,"roughnessFactor":1}},{"name":"Cube (1)_BoxCollider_mat","pbrMetallicRoughness":{"baseColorFactor":[0.5000,0.5000,0.5000,1.0000],"metallicFactor":0,"roughnessFactor":1}},{"name":"Cube (2)_BoxCollider_mat","pbrMetallicRoughness":{"baseColorFactor":[0.5000,0.5000,0.5000,1.0000],"metallicFactor":0,"roughnessFactor":1}},{"name":"Cube (3)_BoxCollider_mat","pbrMetallicRoughness":{"baseColorFactor":[0.5000,0.5000,0.5000,1.0000],"metallicFactor":0,"roughnessFactor":1}},{"name":"Cube (4)_BoxCollider_mat","pbrMetallicRoughness":{"baseColorFactor":[0.5000,0.5000,0.5000,1.0000],"metallicFactor":0,"roughnessFactor":1}},{"name":"Cube (5)_BoxCollider_mat","pbrMetallicRoughness":{"baseColorFactor":[0.5000,0.5000,0.5000,1.0000],"metallicFactor":0,"roughnessFactor":1}},{"name":"Cube (6)_BoxCollider_mat","pbrMetallicRoughness":{"baseColorFactor":[0.5000,0.5000,0.5000,1.0000],"metallicFactor":0,"roughnessFactor":1}},{"name":"Cube (7)_BoxCollider_mat","pbrMetallicRoughness":{"baseColorFactor":[0.5000,0.5000,0.5000,1.0000],"metallicFactor":0,"roughnessFactor":1}},{"name":"Cube (8)_BoxCollider_mat","pbrMetallicRoughness":{"baseColorFactor":[0.5000,0.5000,0.5000,1.0000],"metallicFactor":0,"roughnessFactor":1}},{"name":"Cube (9)_BoxCollider_mat","pbrMetallicRoughness":{"baseColorFactor":[0.5000,0.5000,0.5000,1.0000],"metallicFactor":0,"roughnessFactor":1}},{"name":"Cube (11)_BoxCollider_mat","pbrMetallicRoughness":{"baseColorFactor":[0.5000,0.5000,0.5000,1.0000],"metallicFactor":0,"roughnessFactor":1}},{"name":"Cube (12)_BoxCollider_mat","pbrMetallicRoughness":{"baseColorFactor":[0.5000,0.5000,0.5000,1.0000],"metallicFactor":0,"roughnessFactor":1}},{"name":"Cube (13)_BoxCollider_mat","pbrMetallicRoughness":{"baseColorFactor":[0.5000,0.5000,0.5000,1.0000],"metallicFactor":0,"roughnessFactor":1}},{"name":"Cube (14)_BoxCollider_mat","pbrMetallicRoughness":{"baseColorFactor":[0.5000,0.5000,0.5000,1.0000],"metallicFactor":0,"roughnessFactor":1}},{"name":"Cube (15)_BoxCollider_mat","pbrMetallicRoughness":{"baseColorFactor":[0.5000,0.5000,0.5000,1.0000],"metallicFactor":0,"roughnessFactor":1}},{"name":"Cube (16)_BoxCollider_mat","pbrMetallicRoughness":{"baseColorFactor":[0.5000,0.5000,0.5000,1.0000],"metallicFactor":0,"roughnessFactor":1}},{"name":"Cube (10)_BoxCollider_mat","pbrMetallicRoughness":{"baseColorFactor":[0.5000,0.5000,0.5000,1.0000],"metallicFactor":0,"roughnessFactor":1}},{"name":"floor_BoxCollider_mat","pbrMetallicRoughness":{"baseColorFactor":[0.5000,0.5000,0.5000,1.0000],"metallicFactor":0,"roughnessFactor":1}}]
}
