{
  "asset":{"version":"2.0","generator":"Unity MultiObjectMapAndNavMeshExporter"},
  "scene":0,
  "scenes":[{"name":"Scene","nodes":[0]}],
  "nodes":[{"name":"HangerB","children":[1]},{"name":"map","mesh":0}],
  "meshes":[{"name":"map","primitives":[{"attributes":{"POSITION":0,"NORMAL":1,"TEXCOORD_0":2},"indices":3,"material":0}]}],
  "accessors":[{"bufferView":0,"componentType":5126,"count":528,"type":"VEC3","min":[-26,-0.5,-26],"max":[26,20.5,26.0100002]},{"bufferView":1,"componentType":5126,"count":528,"type":"VEC3"},{"bufferView":2,"componentType":5126,"count":528,"type":"VEC2"},{"bufferView":3,"componentType":5125,"count":792,"type":"SCALAR"}],
  "bufferViews":[{"buffer":0,"byteOffset":0,"byteLength":6336,"target":34962},{"buffer":0,"byteOffset":6336,"byteLength":6336,"target":34962},{"buffer":0,"byteOffset":12672,"byteLength":4224,"target":34962},{"buffer":0,"byteOffset":16896,"byteLength":3168,"target":34963}],
  "buffers":[{"uri":"HangerB.bin","byteLength":20064}],
  "materials":[{"name":"map_mat","pbrMetallicRoughness":{"baseColorFactor":[1.0000,1.0000,1.0000,1.0000],"metallicFactor":0,"roughnessFactor":1}}]
}
