{
  "asset":{"version":"2.0","generator":"Unity MultiObjectMapAndNavMeshExporter"},
  "scene":0,
  "scenes":[{"name":"Scene","nodes":[0]}],
  "nodes":[{"name":"Helipad","children":[1,2,3,4,5,6,7,8,9,10,11,12,13,14,15,16,17,18,19,20,21,22,23,24,25]},{"name":"Floor_BoxCollider","mesh":0},{"name":"Cube_BoxCollider","mesh":1},{"name":"Cube (5)_BoxCollider","mesh":2},{"name":"Cube (6)_BoxCollider","mesh":3},{"name":"Cube (1)_BoxCollider","mesh":4},{"name":"Cube (2)_BoxCollider","mesh":5},{"name":"Cube (3)_BoxCollider","mesh":6},{"name":"Cube (4)_BoxCollider","mesh":7},{"name":"Cube (7)_BoxCollider","mesh":8},{"name":"Cube (8)_BoxCollider","mesh":9},{"name":"Cube (9)_BoxCollider","mesh":10},{"name":"Cube (10)_BoxCollider","mesh":11},{"name":"Cube (12)_BoxCollider","mesh":12},{"name":"Cube (13)_BoxCollider","mesh":13},{"name":"Cube (14)_BoxCollider","mesh":14},{"name":"Cube (15)_BoxCollider","mesh":15},{"name":"Cube (16)_BoxCollider","mesh":16},{"name":"Cube (17)_BoxCollider","mesh":17},{"name":"Cube (18)_BoxCollider","mesh":18},{"name":"Cube (19)_BoxCollider","mesh":19},{"name":"Cube (20)_BoxCollider","mesh":20},{"name":"Cube (21)_BoxCollider","mesh":21},{"name":"Cube (22)_BoxCollider","mesh":22},{"name":"Cube (24)_BoxCollider","mesh":23},{"name":"Cube (23)_BoxCollider","mesh":24}],
  "meshes":[{"name":"Floor_BoxCollider","primitives":[{"attributes":{"POSITION":0},"indices":1,"material":0}]},{"name":"Cube_BoxCollider","primitives":[{"attributes":{"POSITION":2},"indices":3,"material":1}]},{"name":"Cube (5)_BoxCollider","primitives":[{"attributes":{"POSITION":4},"indices":5,"material":2}]},{"name":"Cube (6)_BoxCollider","primitives":[{"attributes":{"POSITION":6},"indices":7,"material":3}]},{"name":"Cube (1)_BoxCollider","primitives":[{"attributes":{"POSITION":8},"indices":9,"material":4}]},{"name":"Cube (2)_BoxCollider","primitives":[{"attributes":{"POSITION":10},"indices":11,"material":5}]},{"name":"Cube (3)_BoxCollider","primitives":[{"attributes":{"POSITION":12},"indices":13,"material":6}]},{"name":"Cube (4)_BoxCollider","primitives":[{"attributes":{"POSITION":14},"indices":15,"material":7}]},{"name":"Cube (7)_BoxCollider","primitives":[{"attributes":{"POSITION":16},"indices":17,"material":8}]},{"name":"Cube (8)_BoxCollider","primitives":[{"attributes":{"POSITION":18},"indices":19,"material":9}]},{"name":"Cube (9)_BoxCollider","primitives":[{"attributes":{"POSITION":20},"indices":21,"material":10}]},{"name":"Cube (10)_BoxCollider","primitives":[{"attributes":{"POSITION":22},"indices":23,"material":11}]},{"name":"Cube (12)_BoxCollider","primitives":[{"attributes":{"POSITION":24},"indices":25,"material":12}]},{"name":"Cube (13)_BoxCollider","primitives":[{"attributes":{"POSITION":26},"indices":27,"material":13}]},{"name":"Cube (14)_BoxCollider","primitives":[{"attributes":{"POSITION":28},"indices":29,"material":14}]},{"name":"Cube (15)_BoxCollider","primitives":[{"attributes":{"POSITION":30},"indices":31,"material":15}]},{"name":"Cube (16)_BoxCollider","primitives":[{"attributes":{"POSITION":32},"indices":33,"material":16}]},{"name":"Cube (17)_BoxCollider","primitives":[{"attributes":{"POSITION":34},"indices":35,"material":17}]},{"name":"Cube (18)_BoxCollider","primitives":[{"attributes":{"POSITION":36},"indices":37,"material":18}]},{"name":"Cube (19)_BoxCollider","primitives":[{"attributes":{"POSITION":38},"indices":39,"material":19}]},{"name":"Cube (20)_BoxCollider","primitives":[{"attributes":{"POSITION":40},"indices":41,"material":20}]},{"name":"Cube (21)_BoxCollider","primitives":[{"attributes":{"POSITION":42},"indices":43,"material":21}]},{"name":"Cube (22)_BoxCollider","primitives":[{"attributes":{"POSITION":44},"indices":45,"material":22}]},{"name":"Cube (24)_BoxCollider","primitives":[{"attributes":{"POSITION":46},"indices":47,"material":23}]},{"name":"Cube (23)_BoxCollider","primitives":[{"attributes":{"POSITION":48},"indices":49,"material":24}]}],
  "accessors":[{"bufferView":0,"componentType":5126,"count":24,"type":"VEC3","min":[-29.5,-0.5,-30],"max":[40.5,0.5,30]},{"bufferView":1,"componentType":5125,"count":36,"type":"SCALAR"},{"bufferView":2,"componentType":5126,"count":24,"type":"VEC3","min":[-10,0.5,0],"max":[10,2.5,20]},{"bufferView":3,"componentType":5125,"count":36,"type":"SCALAR"},{"bufferView":4,"componentType":5126,"count":24,"type":"VEC3","min":[-29.25,0.5,6.07999992],"max":[-20.75,5.5,7.92000008]},{"bufferView":5,"componentType":5125,"count":36,"type":"SCALAR"},{"bufferView":6,"componentType":5126,"count":24,"type":"VEC3","min":[-29.25,0.5,15.0799999],"max":[-20.75,5.5,16.9200001]},{"bufferView":7,"componentType":5125,"count":36,"type":"SCALAR"},{"bufferView":8,"componentType":5126,"count":24,"type":"VEC3","min":[25.5,1,7.5],"max":[30.5,7,12.5]},{"bufferView":9,"componentType":5125,"count":36,"type":"SCALAR"},{"bufferView":10,"componentType":5126,"count":24,"type":"VEC3","min":[25.5,1,-2.5],"max":[30.5,7,2.5]},{"bufferView":11,"componentType":5125,"count":36,"type":"SCALAR"},{"bufferView":12,"componentType":5126,"count":24,"type":"VEC3","min":[25.5,1,-12.5],"max":[30.5,7,-7.5]},{"bufferView":13,"componentType":5125,"count":36,"type":"SCALAR"},{"bufferView":14,"componentType":5126,"count":24,"type":"VEC3","min":[-8.39999962,0,-17.1000023],"max":[-3.39999962,5,-7.10000229]},{"bufferView":15,"componentType":5125,"count":36,"type":"SCALAR"},{"bufferView":16,"componentType":5126,"count":24,"type":"VEC3","min":[-29.5,0.5,-30.5],"max":[40.5,10.5,-29.5]},{"bufferView":17,"componentType":5125,"count":36,"type":"SCALAR"},{"bufferView":18,"componentType":5126,"count":24,"type":"VEC3","min":[39.5,0.5,-30],"max":[40.5,10.5,30]},{"bufferView":19,"componentType":5125,"count":36,"type":"SCALAR"},{"bufferView":20,"componentType":5126,"count":24,"type":"VEC3","min":[-29.5,0.5,-30],"max":[-28.5,10.5,30]},{"bufferView":21,"componentType":5125,"count":36,"type":"SCALAR"},{"bufferView":22,"componentType":5126,"count":24,"type":"VEC3","min":[-29,0.5,29],"max":[41,10.5,30]},{"bufferView":23,"componentType":5125,"count":36,"type":"SCALAR"},{"bufferView":24,"componentType":5126,"count":24,"type":"VEC3","min":[-9.5,2.5,0.25],"max":[9.5,3.5,0.75]},{"bufferView":25,"componentType":5125,"count":36,"type":"SCALAR"},{"bufferView":26,"componentType":5126,"count":24,"type":"VEC3","min":[-3.5,2.5,19.25],"max":[9.5,3.5,19.75]},{"bufferView":27,"componentType":5125,"count":36,"type":"SCALAR"},{"bufferView":28,"componentType":5126,"count":24,"type":"VEC3","min":[9.25,2.5,0.5],"max":[9.75,3.5,13.5]},{"bufferView":29,"componentType":5125,"count":36,"type":"SCALAR"},{"bufferView":30,"componentType":5126,"count":24,"type":"VEC3","min":[-9.25,2.5,6.75],"max":[-8.75,3.5,19.75]},{"bufferView":31,"componentType":5125,"count":36,"type":"SCALAR"},{"bufferView":32,"componentType":5126,"count":24,"type":"VEC3","min":[-8.31999969,-0.885010839,19.4969349],"max":[-5.31999969,2.48101139,24.3270626]},{"bufferView":33,"componentType":5125,"count":36,"type":"SCALAR"},{"bufferView":34,"componentType":5126,"count":24,"type":"VEC3","min":[9.4859314,-0.885010958,15.182992],"max":[14.3160686,2.48101163,18.1830063]},{"bufferView":35,"componentType":5125,"count":36,"type":"SCALAR"},{"bufferView":36,"componentType":5126,"count":24,"type":"VEC3","min":[-14.2950678,-0.885010958,2.00999165],"max":[-9.46493053,2.48101163,5.010005]},{"bufferView":37,"componentType":5125,"count":36,"type":"SCALAR"},{"bufferView":38,"componentType":5126,"count":24,"type":"VEC3","min":[-18.8500004,0.5,19],"max":[-9.85000038,5.5,20]},{"bufferView":39,"componentType":5125,"count":36,"type":"SCALAR"},{"bufferView":40,"componentType":5126,"count":24,"type":"VEC3","min":[-22.4213219,0.5,15.8186827],"max":[-18.1786766,5.5,20.0613194]},{"bufferView":41,"componentType":5125,"count":36,"type":"SCALAR"},{"bufferView":42,"componentType":5126,"count":24,"type":"VEC3","min":[-28.5,0.5,-29.4999962],"max":[-18.5,20.5,-19.4999962]},{"bufferView":43,"componentType":5125,"count":36,"type":"SCALAR"},{"bufferView":44,"componentType":5126,"count":24,"type":"VEC3","min":[-18.3199997,6.5,-26.1199989],"max":[36.6800003,9.5,-26.0200005]},{"bufferView":45,"componentType":5125,"count":36,"type":"SCALAR"},{"bufferView":46,"componentType":5126,"count":24,"type":"VEC3","min":[-20.4300003,7.5,-29.1599998],"max":[39.5699997,8.5,-26.1599998]},{"bufferView":47,"componentType":5125,"count":36,"type":"SCALAR"},{"bufferView":48,"componentType":5126,"count":24,"type":"VEC3","min":[36.4584198,-0.904800415,-26.6619339],"max":[39.4584198,8.46121216,-11.439497]},{"bufferView":49,"componentType":5125,"count":36,"type":"SCALAR"}],
  "bufferViews":[{"buffer":0,"byteOffset":0,"byteLength":288,"target":34962},{"buffer":0,"byteOffset":288,"byteLength":144,"target":34963},{"buffer":0,"byteOffset":432,"byteLength":288,"target":34962},{"buffer":0,"byteOffset":720,"byteLength":144,"target":34963},{"buffer":0,"byteOffset":864,"byteLength":288,"target":34962},{"buffer":0,"byteOffset":1152,"byteLength":144,"target":34963},{"buffer":0,"byteOffset":1296,"byteLength":288,"target":34962},{"buffer":0,"byteOffset":1584,"byteLength":144,"target":34963},{"buffer":0,"byteOffset":1728,"byteLength":288,"target":34962},{"buffer":0,"byteOffset":2016,"byteLength":144,"target":34963},{"buffer":0,"byteOffset":2160,"byteLength":288,"target":34962},{"buffer":0,"byteOffset":2448,"byteLength":144,"target":34963},{"buffer":0,"byteOffset":2592,"byteLength":288,"target":34962},{"buffer":0,"byteOffset":2880,"byteLength":144,"target":34963},{"buffer":0,"byteOffset":3024,"byteLength":288,"target":34962},{"buffer":0,"byteOffset":3312,"byteLength":144,"target":34963},{"buffer":0,"byteOffset":3456,"byteLength":288,"target":34962},{"buffer":0,"byteOffset":3744,"byteLength":144,"target":34963},{"buffer":0,"byteOffset":3888,"byteLength":288,"target":34962},{"buffer":0,"byteOffset":4176,"byteLength":144,"target":34963},{"buffer":0,"byteOffset":4320,"byteLength":288,"target":34962},{"buffer":0,"byteOffset":4608,"byteLength":144,"target":34963},{"buffer":0,"byteOffset":4752,"byteLength":288,"target":34962},{"buffer":0,"byteOffset":5040,"byteLength":144,"target":34963},{"buffer":0,"byteOffset":5184,"byteLength":288,"target":34962},{"buffer":0,"byteOffset":5472,"byteLength":144,"target":34963},{"buffer":0,"byteOffset":5616,"byteLength":288,"target":34962},{"buffer":0,"byteOffset":5904,"byteLength":144,"target":34963},{"buffer":0,"byteOffset":6048,"byteLength":288,"target":34962},{"buffer":0,"byteOffset":6336,"byteLength":144,"target":34963},{"buffer":0,"byteOffset":6480,"byteLength":288,"target":34962},{"buffer":0,"byteOffset":6768,"byteLength":144,"target":34963},{"buffer":0,"byteOffset":6912,"byteLength":288,"target":34962},{"buffer":0,"byteOffset":7200,"byteLength":144,"target":34963},{"buffer":0,"byteOffset":7344,"byteLength":288,"target":34962},{"buffer":0,"byteOffset":7632,"byteLength":144,"target":34963},{"buffer":0,"byteOffset":7776,"byteLength":288,"target":34962},{"buffer":0,"byteOffset":8064,"byteLength":144,"target":34963},{"buffer":0,"byteOffset":8208,"byteLength":288,"target":34962},{"buffer":0,"byteOffset":8496,"byteLength":144,"target":34963},{"buffer":0,"byteOffset":8640,"byteLength":288,"target":34962},{"buffer":0,"byteOffset":8928,"byteLength":144,"target":34963},{"buffer":0,"byteOffset":9072,"byteLength":288,"target":34962},{"buffer":0,"byteOffset":9360,"byteLength":144,"target":34963},{"buffer":0,"byteOffset":9504,"byteLength":288,"target":34962},{"buffer":0,"byteOffset":9792,"byteLength":144,"target":34963},{"buffer":0,"byteOffset":9936,"byteLength":288,"target":34962},{"buffer":0,"byteOffset":10224,"byteLength":144,"target":34963},{"buffer":0,"byteOffset":10368,"byteLength":288,"target":34962},{"buffer":0,"byteOffset":10656,"byteLength":144,"target":34963}],
  "buffers":[{"uri":"Helipad_collision.bin","byteLength":10800}],
  "materials":[{"name":"Floor_BoxCollider_mat","pbrMetallicRoughness":{"baseColorFactor":[0.5000,0.5000,0.5000,1.0000],"metallicFactor":0,"roughnessFactor":1}},{"name":"Cube_BoxCollider_mat","pbrMetallicRoughness":{"baseColorFactor":[0.5000,0.5000,0.5000,1.0000],"metallicFactor":0,"roughnessFactor":1}},{"name":"Cube (5)_BoxCollider_mat","pbrMetallicRoughness":{"baseColorFactor":[0.5000,0.5000,0.5000,1.0000],"metallicFactor":0,"roughnessFactor":1}},{"name":"Cube (6)_BoxCollider_mat","pbrMetallicRoughness":{"baseColorFactor":[0.5000,0.5000,0.5000,1.0000],"metallicFactor":0,"roughnessFactor":1}},{"name":"Cube (1)_BoxCollider_mat","pbrMetallicRoughness":{"baseColorFactor":[0.5000,0.5000,0.5000,1.0000],"metallicFactor":0,"roughnessFactor":1}},{"name":"Cube (2)_BoxCollider_mat","pbrMetallicRoughness":{"baseColorFactor":[0.5000,0.5000,0.5000,1.0000],"metallicFactor":0,"roughnessFactor":1}},{"name":"Cube (3)_BoxCollider_mat","pbrMetallicRoughness":{"baseColorFactor":[0.5000,0.5000,0.5000,1.0000],"metallicFactor":0,"roughnessFactor":1}},{"name":"Cube (4)_BoxCollider_mat","pbrMetallicRoughness":{"baseColorFactor":[0.5000,0.5000,0.5000,1.0000],"metallicFactor":0,"roughnessFactor":1}},{"name":"Cube (7)_BoxCollider_mat","pbrMetallicRoughness":{"baseColorFactor":[0.5000,0.5000,0.5000,1.0000],"metallicFactor":0,"roughnessFactor":1}},{"name":"Cube (8)_BoxCollider_mat","pbrMetallicRoughness":{"baseColorFactor":[0.5000,0.5000,0.5000,1.0000],"metallicFactor":0,"roughnessFactor":1}},{"name":"Cube (9)_BoxCollider_mat","pbrMetallicRoughness":{"baseColorFactor":[0.5000,0.5000,0.5000,1.0000],"metallicFactor":0,"roughnessFactor":1}},{"name":"Cube (10)_BoxCollider_mat","pbrMetallicRoughness":{"baseColorFactor":[0.5000,0.5000,0.5000,1.0000],"metallicFactor":0,"roughnessFactor":1}},{"name":"Cube (12)_BoxCollider_mat","pbrMetallicRoughness":{"baseColorFactor":[0.5000,0.5000,0.5000,1.0000],"metallicFactor":0,"roughnessFactor":1}},{"name":"Cube (13)_BoxCollider_mat","pbrMetallicRoughness":{"baseColorFactor":[0.5000,0.5000,0.5000,1.0000],"metallicFactor":0,"roughnessFactor":1}},{"name":"Cube (14)_BoxCollider_mat","pbrMetallicRoughness":{"baseColorFactor":[0.5000,0.5000,0.5000,1.0000],"metallicFactor":0,"roughnessFactor":1}},{"name":"Cube (15)_BoxCollider_mat","pbrMetallicRoughness":{"baseColorFactor":[0.5000,0.5000,0.5000,1.0000],"metallicFactor":0,"roughnessFactor":1}},{"name":"Cube (16)_BoxCollider_mat","pbrMetallicRoughness":{"baseColorFactor":[0.5000,0.5000,0.5000,1.0000],"metallicFactor":0,"roughnessFactor":1}},{"name":"Cube (17)_BoxCollider_mat","pbrMetallicRoughness":{"baseColorFactor":[0.5000,0.5000,0.5000,1.0000],"metallicFactor":0,"roughnessFactor":1}},{"name":"Cube (18)_BoxCollider_mat","pbrMetallicRoughness":{"baseColorFactor":[0.5000,0.5000,0.5000,1.0000],"metallicFactor":0,"roughnessFactor":1}},{"name":"Cube (19)_BoxCollider_mat","pbrMetallicRoughness":{"baseColorFactor":[0.5000,0.5000,0.5000,1.0000],"metallicFactor":0,"roughnessFactor":1}},{"name":"Cube (20)_BoxCollider_mat","pbrMetallicRoughness":{"baseColorFactor":[0.5000,0.5000,0.5000,1.0000],"metallicFactor":0,"roughnessFactor":1}},{"name":"Cube (21)_BoxCollider_mat","pbrMetallicRoughness":{"baseColorFactor":[0.5000,0.5000,0.5000,1.0000],"metallicFactor":0,"roughnessFactor":1}},{"name":"Cube (22)_BoxCollider_mat","pbrMetallicRoughness":{"baseColorFactor":[0.5000,0.5000,0.5000,1.0000],"metallicFactor":0,"roughnessFactor":1}},{"name":"Cube (24)_BoxCollider_mat","pbrMetallicRoughness":{"baseColorFactor":[0.5000,0.5000,0.5000,1.0000],"metallicFactor":0,"roughnessFactor":1}},{"name":"Cube (23)_BoxCollider_mat","pbrMetallicRoughness":{"baseColorFactor":[0.5000,0.5000,0.5000,1.0000],"metallicFactor":0,"roughnessFactor":1}}]
}
