{
  "asset":{"version":"2.0","generator":"Unity MultiObjectMapAndNavMeshExporter"},
  "scene":0,
  "scenes":[{"name":"Scene","nodes":[0]}],
  "nodes":[{"name":"TutorialLevel","children":[1,2,3,4,5,6,7,8,9,10,11,12,13,14,15,16,17,18,19,20,21,22,23,24,25,26,27]},{"name":"Floor_BoxCollider","mesh":0},{"name":"Cube_BoxCollider","mesh":1},{"name":"Cube (7)_BoxCollider","mesh":2},{"name":"Cube (1)_BoxCollider","mesh":3},{"name":"Cube (2)_BoxCollider","mesh":4},{"name":"Cube (11)_BoxCollider","mesh":5},{"name":"Cube (18)_BoxCollider","mesh":6},{"name":"Cube (19)_BoxCollider","mesh":7},{"name":"Cube (23)_BoxCollider","mesh":8},{"name":"Cube (24)_BoxCollider","mesh":9},{"name":"Cube (29)_BoxCollider","mesh":10},{"name":"Cube (30)_BoxCollider","mesh":11},{"name":"Cube (32)_BoxCollider","mesh":12},{"name":"Cube (3)_BoxCollider","mesh":13},{"name":"Cube (4)_BoxCollider","mesh":14},{"name":"Cube (12)_BoxCollider","mesh":15},{"name":"Cube (6)_BoxCollider","mesh":16},{"name":"Cube (8)_BoxCollider","mesh":17},{"name":"Cube (10)_BoxCollider","mesh":18},{"name":"Cube (16)_BoxCollider","mesh":19},{"name":"Cube (17)_BoxCollider","mesh":20},{"name":"Cube (25)_BoxCollider","mesh":21},{"name":"Cube (26)_BoxCollider","mesh":22},{"name":"Cube (27)_BoxCollider","mesh":23},{"name":"Cube (33)_BoxCollider","mesh":24},{"name":"Cube (35)_BoxCollider","mesh":25},{"name":"Cube (36)_BoxCollider","mesh":26}],
  "meshes":[{"name":"Floor_BoxCollider","primitives":[{"attributes":{"POSITION":0},"indices":1,"material":0}]},{"name":"Cube_BoxCollider","primitives":[{"attributes":{"POSITION":2},"indices":3,"material":1}]},{"name":"Cube (7)_BoxCollider","primitives":[{"attributes":{"POSITION":4},"indices":5,"material":2}]},{"name":"Cube (1)_BoxCollider","primitives":[{"attributes":{"POSITION":6},"indices":7,"material":3}]},{"name":"Cube (2)_BoxCollider","primitives":[{"attributes":{"POSITION":8},"indices":9,"material":4}]},{"name":"Cube (11)_BoxCollider","primitives":[{"attributes":{"POSITION":10},"indices":11,"material":5}]},{"name":"Cube (18)_BoxCollider","primitives":[{"attributes":{"POSITION":12},"indices":13,"material":6}]},{"name":"Cube (19)_BoxCollider","primitives":[{"attributes":{"POSITION":14},"indices":15,"material":7}]},{"name":"Cube (23)_BoxCollider","primitives":[{"attributes":{"POSITION":16},"indices":17,"material":8}]},{"name":"Cube (24)_BoxCollider","primitives":[{"attributes":{"POSITION":18},"indices":19,"material":9}]},{"name":"Cube (29)_BoxCollider","primitives":[{"attributes":{"POSITION":20},"indices":21,"material":10}]},{"name":"Cube (30)_BoxCollider","primitives":[{"attributes":{"POSITION":22},"indices":23,"material":11}]},{"name":"Cube (32)_BoxCollider","primitives":[{"attributes":{"POSITION":24},"indices":25,"material":12}]},{"name":"Cube (3)_BoxCollider","primitives":[{"attributes":{"POSITION":26},"indices":27,"material":13}]},{"name":"Cube (4)_BoxCollider","primitives":[{"attributes":{"POSITION":28},"indices":29,"material":14}]},{"name":"Cube (12)_BoxCollider","primitives":[{"attributes":{"POSITION":30},"indices":31,"material":15}]},{"name":"Cube (6)_BoxCollider","primitives":[{"attributes":{"POSITION":32},"indices":33,"material":16}]},{"name":"Cube (8)_BoxCollider","primitives":[{"attributes":{"POSITION":34},"indices":35,"material":17}]},{"name":"Cube (10)_BoxCollider","primitives":[{"attributes":{"POSITION":36},"indices":37,"material":18}]},{"name":"Cube (16)_BoxCollider","primitives":[{"attributes":{"POSITION":38},"indices":39,"material":19}]},{"name":"Cube (17)_BoxCollider","primitives":[{"attributes":{"POSITION":40},"indices":41,"material":20}]},{"name":"Cube (25)_BoxCollider","primitives":[{"attributes":{"POSITION":42},"indices":43,"material":21}]},{"name":"Cube (26)_BoxCollider","primitives":[{"attributes":{"POSITION":44},"indices":45,"material":22}]},{"name":"Cube (27)_BoxCollider","primitives":[{"attributes":{"POSITION":46},"indices":47,"material":23}]},{"name":"Cube (33)_BoxCollider","primitives":[{"attributes":{"POSITION":48},"indices":49,"material":24}]},{"name":"Cube (35)_BoxCollider","primitives":[{"attributes":{"POSITION":50},"indices":51,"material":25}]},{"name":"Cube (36)_BoxCollider","primitives":[{"attributes":{"POSITION":52},"indices":53,"material":26}]}],
  "accessors":[{"bufferView":0,"componentType":5126,"count":24,"type":"VEC3","min":[-20,-0.5,-20],"max":[20,0.5,20]},{"bufferView":1,"componentType":5125,"count":36,"type":"SCALAR"},{"bufferView":2,"componentType":5126,"count":24,"type":"VEC3","min":[-19,0,2.37527514],"max":[-14,3,3.37527514]},{"bufferView":3,"componentType":5125,"count":36,"type":"SCALAR"},{"bufferView":4,"componentType":5126,"count":24,"type":"VEC3","min":[-14,0,7.02527523],"max":[-6,3,8.02527523]},{"bufferView":5,"componentType":5125,"count":36,"type":"SCALAR"},{"bufferView":6,"componentType":5126,"count":24,"type":"VEC3","min":[-10,0,2.37527514],"max":[-5,3,3.37527514]},{"bufferView":7,"componentType":5125,"count":36,"type":"SCALAR"},{"bufferView":8,"componentType":5126,"count":24,"type":"VEC3","min":[-19,0,-9.47472477],"max":[-11,3,-8.47472477]},{"bufferView":9,"componentType":5125,"count":36,"type":"SCALAR"},{"bufferView":10,"componentType":5126,"count":24,"type":"VEC3","min":[-19,0,-15.5],"max":[5,3,-14.5]},{"bufferView":11,"componentType":5125,"count":36,"type":"SCALAR"},{"bufferView":12,"componentType":5126,"count":24,"type":"VEC3","min":[10.5,0,-15.5],"max":[19.5,3,-14.5]},{"bufferView":13,"componentType":5125,"count":36,"type":"SCALAR"},{"bufferView":14,"componentType":5126,"count":24,"type":"VEC3","min":[-20,0,19.5],"max":[20,3,20.5]},{"bufferView":15,"componentType":5125,"count":36,"type":"SCALAR"},{"bufferView":16,"componentType":5126,"count":24,"type":"VEC3","min":[15.5,0,-14.5],"max":[16.5,3,-2.5]},{"bufferView":17,"componentType":5125,"count":36,"type":"SCALAR"},{"bufferView":18,"componentType":5126,"count":24,"type":"VEC3","min":[15.5,0,-0.5],"max":[16.5,3,19.5]},{"bufferView":19,"componentType":5125,"count":36,"type":"SCALAR"},{"bufferView":20,"componentType":5126,"count":24,"type":"VEC3","min":[8.49995518,0,-9.50000286],"max":[9.50004482,3,5.50000286]},{"bufferView":21,"componentType":5125,"count":36,"type":"SCALAR"},{"bufferView":22,"componentType":5126,"count":24,"type":"VEC3","min":[8.50008106,0,11.4999971],"max":[9.50012875,3,19.5000038]},{"bufferView":23,"componentType":5125,"count":36,"type":"SCALAR"},{"bufferView":24,"componentType":5126,"count":24,"type":"VEC3","min":[1.5,0,-0.5],"max":[2.5,3,19.5]},{"bufferView":25,"componentType":5125,"count":36,"type":"SCALAR"},{"bufferView":26,"componentType":5126,"count":24,"type":"VEC3","min":[-6,0,-9.5],"max":[9.5,3,-8.5]},{"bufferView":27,"componentType":5125,"count":36,"type":"SCALAR"},{"bufferView":28,"componentType":5126,"count":24,"type":"VEC3","min":[-20,0,-20],"max":[-19,3,20]},{"bufferView":29,"componentType":5125,"count":36,"type":"SCALAR"},{"bufferView":30,"componentType":5126,"count":24,"type":"VEC3","min":[-20,0,-20.5],"max":[20,3,-19.5]},{"bufferView":31,"componentType":5125,"count":36,"type":"SCALAR"},{"bufferView":32,"componentType":5126,"count":24,"type":"VEC3","min":[-6,0,-9],"max":[-5,3,8]},{"bufferView":33,"componentType":5125,"count":36,"type":"SCALAR"},{"bufferView":34,"componentType":5126,"count":24,"type":"VEC3","min":[-15,0,7.02527523],"max":[-14,3,12.0252752]},{"bufferView":35,"componentType":5125,"count":36,"type":"SCALAR"},{"bufferView":36,"componentType":5126,"count":24,"type":"VEC3","min":[-19.0000019,0,12.0252676],"max":[-13.9999981,3,13.0252829]},{"bufferView":37,"componentType":5125,"count":36,"type":"SCALAR"},{"bufferView":38,"componentType":5126,"count":24,"type":"VEC3","min":[4.48023033,0,-19.5038795],"max":[5.51976967,3,-14.4961214]},{"bufferView":39,"componentType":5125,"count":36,"type":"SCALAR"},{"bufferView":40,"componentType":5126,"count":24,"type":"VEC3","min":[9.48023033,0,-19.5038795],"max":[10.5197697,3,-14.4961214]},{"bufferView":41,"componentType":5125,"count":36,"type":"SCALAR"},{"bufferView":42,"componentType":5126,"count":24,"type":"VEC3","min":[19.5,0,-20.5],"max":[20.5,3,19.5]},{"bufferView":43,"componentType":5125,"count":36,"type":"SCALAR"},{"bufferView":44,"componentType":5126,"count":24,"type":"VEC3","min":[16.5,0,-3.5],"max":[19.5,3,-2.5]},{"bufferView":45,"componentType":5125,"count":36,"type":"SCALAR"},{"bufferView":46,"componentType":5126,"count":24,"type":"VEC3","min":[16.5,0,-0.5],"max":[19.5,3,0.5]},{"bufferView":47,"componentType":5125,"count":36,"type":"SCALAR"},{"bufferView":48,"componentType":5126,"count":24,"type":"VEC3","min":[1.5,0,-3],"max":[4.5,3,0]},{"bufferView":49,"componentType":5125,"count":36,"type":"SCALAR"},{"bufferView":50,"componentType":5126,"count":24,"type":"VEC3","min":[-10.5,0,12.5],"max":[-7.5,3,15.5]},{"bufferView":51,"componentType":5125,"count":36,"type":"SCALAR"},{"bufferView":52,"componentType":5126,"count":24,"type":"VEC3","min":[-4.5,0,12.5],"max":[-1.5,3,15.5]},{"bufferView":53,"componentType":5125,"count":36,"type":"SCALAR"}],
  "bufferViews":[{"buffer":0,"byteOffset":0,"byteLength":288,"target":34962},{"buffer":0,"byteOffset":288,"byteLength":144,"target":34963},{"buffer":0,"byteOffset":432,"byteLength":288,"target":34962},{"buffer":0,"byteOffset":720,"byteLength":144,"target":34963},{"buffer":0,"byteOffset":864,"byteLength":288,"target":34962},{"buffer":0,"byteOffset":1152,"byteLength":144,"target":34963},{"buffer":0,"byteOffset":1296,"byteLength":288,"target":34962},{"buffer":0,"byteOffset":1584,"byteLength":144,"target":34963},{"buffer":0,"byteOffset":1728,"byteLength":288,"target":34962},{"buffer":0,"byteOffset":2016,"byteLength":144,"target":34963},{"buffer":0,"byteOffset":2160,"byteLength":288,"target":34962},{"buffer":0,"byteOffset":2448,"byteLength":144,"target":34963},{"buffer":0,"byteOffset":2592,"byteLength":288,"target":34962},{"buffer":0,"byteOffset":2880,"byteLength":144,"target":34963},{"buffer":0,"byteOffset":3024,"byteLength":288,"target":34962},{"buffer":0,"byteOffset":3312,"byteLength":144,"target":34963},{"buffer":0,"byteOffset":3456,"byteLength":288,"target":34962},{"buffer":0,"byteOffset":3744,"byteLength":144,"target":34963},{"buffer":0,"byteOffset":3888,"byteLength":288,"target":34962},{"buffer":0,"byteOffset":4176,"byteLength":144,"target":34963},{"buffer":0,"byteOffset":4320,"byteLength":288,"target":34962},{"buffer":0,"byteOffset":4608,"byteLength":144,"target":34963},{"buffer":0,"byteOffset":4752,"byteLength":288,"target":34962},{"buffer":0,"byteOffset":5040,"byteLength":144,"target":34963},{"buffer":0,"byteOffset":5184,"byteLength":288,"target":34962},{"buffer":0,"byteOffset":5472,"byteLength":144,"target":34963},{"buffer":0,"byteOffset":5616,"byteLength":288,"target":34962},{"buffer":0,"byteOffset":5904,"byteLength":144,"target":34963},{"buffer":0,"byteOffset":6048,"byteLength":288,"target":34962},{"buffer":0,"byteOffset":6336,"byteLength":144,"target":34963},{"buffer":0,"byteOffset":6480,"byteLength":288,"target":34962},{"buffer":0,"byteOffset":6768,"byteLength":144,"target":34963},{"buffer":0,"byteOffset":6912,"byteLength":288,"target":34962},{"buffer":0,"byteOffset":7200,"byteLength":144,"target":34963},{"buffer":0,"byteOffset":7344,"byteLength":288,"target":34962},{"buffer":0,"byteOffset":7632,"byteLength":144,"target":34963},{"buffer":0,"byteOffset":7776,"byteLength":288,"target":34962},{"buffer":0,"byteOffset":8064,"byteLength":144,"target":34963},{"buffer":0,"byteOffset":8208,"byteLength":288,"target":34962},{"buffer":0,"byteOffset":8496,"byteLength":144,"target":34963},{"buffer":0,"byteOffset":8640,"byteLength":288,"target":34962},{"buffer":0,"byteOffset":8928,"byteLength":144,"target":34963},{"buffer":0,"byteOffset":9072,"byteLength":288,"target":34962},{"buffer":0,"byteOffset":9360,"byteLength":144,"target":34963},{"buffer":0,"byteOffset":9504,"byteLength":288,"target":34962},{"buffer":0,"byteOffset":9792,"byteLength":144,"target":34963},{"buffer":0,"byteOffset":9936,"byteLength":288,"target":34962},{"buffer":0,"byteOffset":10224,"byteLength":144,"target":34963},{"buffer":0,"byteOffset":10368,"byteLength":288,"target":34962},{"buffer":0,"byteOffset":10656,"byteLength":144,"target":34963},{"buffer":0,"byteOffset":10800,"byteLength":288,"target":34962},{"buffer":0,"byteOffset":11088,"byteLength":144,"target":34963},{"buffer":0,"byteOffset":11232,"byteLength":288,"target":34962},{"buffer":0,"byteOffset":11520,"byteLength":144,"target":34963}],
  "buffers":[{"uri":"TutorialMap_collision.bin","byteLength":11664}],
  "materials":[{"name":"Floor_BoxCollider_mat","pbrMetallicRoughness":{"baseColorFactor":[0.5000,0.5000,0.5000,1.0000],"metallicFactor":0,"roughnessFactor":1}},{"name":"Cube_BoxCollider_mat","pbrMetallicRoughness":{"baseColorFactor":[0.5000,0.5000,0.5000,1.0000],"metallicFactor":0,"roughnessFactor":1}},{"name":"Cube (7)_BoxCollider_mat","pbrMetallicRoughness":{"baseColorFactor":[0.5000,0.5000,0.5000,1.0000],"metallicFactor":0,"roughnessFactor":1}},{"name":"Cube (1)_BoxCollider_mat","pbrMetallicRoughness":{"baseColorFactor":[0.5000,0.5000,0.5000,1.0000],"metallicFactor":0,"roughnessFactor":1}},{"name":"Cube (2)_BoxCollider_mat","pbrMetallicRoughness":{"baseColorFactor":[0.5000,0.5000,0.5000,1.0000],"metallicFactor":0,"roughnessFactor":1}},{"name":"Cube (11)_BoxCollider_mat","pbrMetallicRoughness":{"baseColorFactor":[0.5000,0.5000,0.5000,1.0000],"metallicFactor":0,"roughnessFactor":1}},{"name":"Cube (18)_BoxCollider_mat","pbrMetallicRoughness":{"baseColorFactor":[0.5000,0.5000,0.5000,1.0000],"metallicFactor":0,"roughnessFactor":1}},{"name":"Cube (19)_BoxCollider_mat","pbrMetallicRoughness":{"baseColorFactor":[0.5000,0.5000,0.5000,1.0000],"metallicFactor":0,"roughnessFactor":1}},{"name":"Cube (23)_BoxCollider_mat","pbrMetallicRoughness":{"baseColorFactor":[0.5000,0.5000,0.5000,1.0000],"metallicFactor":0,"roughnessFactor":1}},{"name":"Cube (24)_BoxCollider_mat","pbrMetallicRoughness":{"baseColorFactor":[0.5000,0.5000,0.5000,1.0000],"metallicFactor":0,"roughnessFactor":1}},{"name":"Cube (29)_BoxCollider_mat","pbrMetallicRoughness":{"baseColorFactor":[0.5000,0.5000,0.5000,1.0000],"metallicFactor":0,"roughnessFactor":1}},{"name":"Cube (30)_BoxCollider_mat","pbrMetallicRoughness":{"baseColorFactor":[0.5000,0.5000,0.5000,1.0000],"metallicFactor":0,"roughnessFactor":1}},{"name":"Cube (32)_BoxCollider_mat","pbrMetallicRoughness":{"baseColorFactor":[0.5000,0.5000,0.5000,1.0000],"metallicFactor":0,"roughnessFactor":1}},{"name":"Cube (3)_BoxCollider_mat","pbrMetallicRoughness":{"baseColorFactor":[0.5000,0.5000,0.5000,1.0000],"metallicFactor":0,"roughnessFactor":1}},{"name":"Cube (4)_BoxCollider_mat","pbrMetallicRoughness":{"baseColorFactor":[0.5000,0.5000,0.5000,1.0000],"metallicFactor":0,"roughnessFactor":1}},{"name":"Cube (12)_BoxCollider_mat","pbrMetallicRoughness":{"baseColorFactor":[0.5000,0.5000,0.5000,1.0000],"metallicFactor":0,"roughnessFactor":1}},{"name":"Cube (6)_BoxCollider_mat","pbrMetallicRoughness":{"baseColorFactor":[0.5000,0.5000,0.5000,1.0000],"metallicFactor":0,"roughnessFactor":1}},{"name":"Cube (8)_BoxCollider_mat","pbrMetallicRoughness":{"baseColorFactor":[0.5000,0.5000,0.5000,1.0000],"metallicFactor":0,"roughnessFactor":1}},{"name":"Cube (10)_BoxCollider_mat","pbrMetallicRoughness":{"baseColorFactor":[0.5000,0.5000,0.5000,1.0000],"metallicFactor":0,"roughnessFactor":1}},{"name":"Cube (16)_BoxCollider_mat","pbrMetallicRoughness":{"baseColorFactor":[0.5000,0.5000,0.5000,1.0000],"metallicFactor":0,"roughnessFactor":1}},{"name":"Cube (17)_BoxCollider_mat","pbrMetallicRoughness":{"baseColorFactor":[0.5000,0.5000,0.5000,1.0000],"metallicFactor":0,"roughnessFactor":1}},{"name":"Cube (25)_BoxCollider_mat","pbrMetallicRoughness":{"baseColorFactor":[0.5000,0.5000,0.5000,1.0000],"metallicFactor":0,"roughnessFactor":1}},{"name":"Cube (26)_BoxCollider_mat","pbrMetallicRoughness":{"baseColorFactor":[0.5000,0.5000,0.5000,1.0000],"metallicFactor":0,"roughnessFactor":1}},{"name":"Cube (27)_BoxCollider_mat","pbrMetallicRoughness":{"baseColorFactor":[0.5000,0.5000,0.5000,1.0000],"metallicFactor":0,"roughnessFactor":1}},{"name":"Cube (33)_BoxCollider_mat","pbrMetallicRoughness":{"baseColorFactor":[0.5000,0.5000,0.5000,1.0000],"metallicFactor":0,"roughnessFactor":1}},{"name":"Cube (35)_BoxCollider_mat","pbrMetallicRoughness":{"baseColorFactor":[0.5000,0.5000,0.5000,1.0000],"metallicFactor":0,"roughnessFactor":1}},{"name":"Cube (36)_BoxCollider_mat","pbrMetallicRoughness":{"baseColorFactor":[0.5000,0.5000,0.5000,1.0000],"metallicFactor":0,"roughnessFactor":1}}]
}
