{
	"asset":{
		"generator":"Khronos glTF Blender I/O v5.1.18",
		"version":"2.0"
	},
	"scene":0,
	"scenes":[
		{
			"name":"Scene",
			"nodes":[
				0,
				1,
				2,
				3,
				4,
				5,
				6,
				7,
				8
			]
		}
	],
	"nodes":[
		{
			"mesh":0,
			"name":"\u73a9\u5bb6\u68f1\u89d2\u7403.001",
			"scale":[
				0.10640065371990204,
				0.10640065371990204,
				0.10640065371990204
			],
			"translation":[
				0.4848729074001312,
				0,
				-0.4704158306121826
			]
		},
		{
			"mesh":1,
			"name":"\u73a9\u5bb6\u68f1\u89d2\u7403.002",
			"scale":[
				0.10640065371990204,
				0.10640065371990204,
				0.10640065371990204
			],
			"translation":[
				0.7365642786026001,
				0,
				-0.4704158306121826
			]
		},
		{
			"mesh":2,
			"name":"\u73a9\u5bb6\u68f1\u89d2\u7403.003",
			"scale":[
				0.10640065371990204,
				0.10640065371990204,
				0.10640065371990204
			],
			"translation":[
				0.9899914264678955,
				0,
				-0.4704158306121826
			]
		},
		{
			"mesh":3,
			"name":"\u73a9\u5bb6\u68f1\u89d2\u7403.004",
			"scale":[
				0.10640065371990204,
				0.10640065371990204,
				0.10640065371990204
			],
			"translation":[
				0.4848729074001312,
				0,
				-0.7151640057563782
			]
		},
		{
			"mesh":4,
			"name":"\u73a9\u5bb6\u68f1\u89d2\u7403.005",
			"scale":[
				0.10640065371990204,
				0.10640065371990204,
				0.10640065371990204
			],
			"translation":[
				0.7365642786026001,
				0,
				-0.7151640057563782
			]
		},
		{
			"mesh":5,
			"name":"\u73a9\u5bb6\u68f1\u89d2\u7403.006",
			"scale":[
				0.10640065371990204,
				0.10640065371990204,
				0.10640065371990204
			],
			"translation":[
				0.9899914264678955,
				0,
				-0.7151640057563782
			]
		},
		{
			"mesh":6,
			"name":"\u73a9\u5bb6\u68f1\u89d2\u7403.007",
			"scale":[
				0.10640065371990204,
				0.10640065371990204,
				0.10640065371990204
			],
			"translation":[
				0.4848729074001312,
				0,
				-0.9599123001098633
			]
		},
		{
			"mesh":7,
			"name":"\u73a9\u5bb6\u68f1\u89d2\u7403.008",
			"scale":[
				0.10640065371990204,
				0.10640065371990204,
				0.10640065371990204
			],
			"translation":[
				0.7365642786026001,
				0,
				-0.9599123001098633
			]
		},
		{
			"mesh":8,
			"name":"\u73a9\u5bb6\u68f1\u89d2\u7403.009",
			"scale":[
				0.10640065371990204,
				0.10640065371990204,
				0.10640065371990204
			],
			"translation":[
				0.9899914264678955,
				0,
				-0.9599123001098633
			]
		}
	],
	"materials":[
		{
			"alphaMode":"BLEND",
			"doubleSided":true,
			"name":"\u6750\u8d28.006",
			"pbrMetallicRoughness":{
				"baseColorFactor":[
					1,
					1,
					1,
					0.21065999567508698
				],
				"metallicFactor":0,
				"roughnessFactor":0.7639594078063965
			}
		},
		{
			"doubleSided":true,
			"name":"\u6750\u8d28.005",
			"pbrMetallicRoughness":{
				"baseColorFactor":[
					0.800000011920929,
					0.800000011920929,
					0.800000011920929,
					1
				],
				"metallicFactor":0,
				"roughnessFactor":0.7385786771774292
			}
		}
	],
	"meshes":[
		{
			"name":"\u68f1\u89d2\u7403.005",
			"primitives":[
				{
					"attributes":{
						"POSITION":0,
						"NORMAL":1,
						"TEXCOORD_0":2
					},
					"indices":3,
					"material":0
				},
				{
					"attributes":{
						"POSITION":4,
						"NORMAL":5,
						"TEXCOORD_0":6
					},
					"indices":3,
					"material":1
				}
			]
		},
		{
			"name":"\u68f1\u89d2\u7403.007",
			"primitives":[
				{
					"attributes":{
						"POSITION":7,
						"NORMAL":8,
						"TEXCOORD_0":9
					},
					"indices":3,
					"material":0
				},
				{
					"attributes":{
						"POSITION":10,
						"NORMAL":11,
						"TEXCOORD_0":12
					},
					"indices":3,
					"material":1
				}
			]
		},
		{
			"name":"\u68f1\u89d2\u7403.008",
			"primitives":[
				{
					"attributes":{
						"POSITION":13,
						"NORMAL":14,
						"TEXCOORD_0":15
					},
					"indices":3,
					"material":0
				},
				{
					"attributes":{
						"POSITION":16,
						"NORMAL":17,
						"TEXCOORD_0":18
					},
					"indices":3,
					"material":1
				}
			]
		},
		{
			"name":"\u68f1\u89d2\u7403.009",
			"primitives":[
				{
					"attributes":{
						"POSITION":19,
						"NORMAL":20,
						"TEXCOORD_0":21
					},
					"indices":3,
					"material":0
				},
				{
					"attributes":{
						"POSITION":22,
						"NORMAL":23,
						"TEXCOORD_0":24
					},
					"indices":3,
					"material":1
				}
			]
		},
		{
			"name":"\u68f1\u89d2\u7403.010",
			"primitives":[
				{
					"attributes":{
						"POSITION":25,
						"NORMAL":26,
						"TEXCOORD_0":27
					},
					"indices":3,
					"material":0
				},
				{
					"attributes":{
						"POSITION":28,
						"NORMAL":29,
						"TEXCOORD_0":30
					},
					"indices":3,
					"material":1
				}
			]
		},
		{
			"name":"\u68f1\u89d2\u7403.011",
			"primitives":[
				{
					"attributes":{
						"POSITION":31,
						"NORMAL":32,
						"TEXCOORD_0":33
					},
					"indices":3,
					"material":0
				},
				{
					"attributes":{
						"POSITION":34,
						"NORMAL":35,
						"TEXCOORD_0":36
					},
					"indices":3,
					"material":1
				}
			]
		},
		{
			"name":"\u68f1\u89d2\u7403.012",
			"primitives":[
				{
					"attributes":{
						"POSITION":37,
						"NORMAL":38,
						"TEXCOORD_0":39
					},
					"indices":3,
					"material":0
				},
				{
					"attributes":{
						"POSITION":40,
						"NORMAL":41,
						"TEXCOORD_0":42
					},
					"indices":3,
					"material":1
				}
			]
		},
		{
			"name":"\u68f1\u89d2\u7403.013",
			"primitives":[
				{
					"attributes":{
						"POSITION":43,
						"NORMAL":44,
						"TEXCOORD_0":45
					},
					"indices":3,
					"material":0
				},
				{
					"attributes":{
						"POSITION":46,
						"NORMAL":47,
						"TEXCOORD_0":48
					},
					"indices":3,
					"material":1
				}
			]
		},
		{
			"name":"\u68f1\u89d2\u7403.014",
			"primitives":[
				{
					"attributes":{
						"POSITION":49,
						"NORMAL":50,
						"TEXCOORD_0":51
					},
					"indices":3,
					"material":0
				},
				{
					"attributes":{
						"POSITION":52,
						"NORMAL":53,
						"TEXCOORD_0":54
					},
					"indices":3,
					"material":1
				}
			]
		}
	],
	"accessors":[
		{
			"bufferView":0,
			"componentType":5126,
			"count":240,
			"max":[
				0.9510578513145447,
				1,
				0.9999999403953552
			],
			"min":[
				-0.9510578513145447,
				-1,
				-0.9999999403953552
			],
			"type":"VEC3"
		},
		{
			"bufferView":1,
			"componentType":5126,
			"count":240,
			"type":"VEC3"
		},
		{
			"bufferView":2,
			"componentType":5126,
			"count":240,
			"type":"VEC2"
		},
		{
			"bufferView":3,
			"componentType":5123,
			"count":240,
			"type":"SCALAR"
		},
		{
			"bufferView":4,
			"componentType":5126,
			"count":240,
			"max":[
				0.7132909297943115,
				0.7499974370002747,
				0.7499999403953552
			],
			"min":[
				-0.7132909297943115,
				-0.7499974370002747,
				-0.7499999403953552
			],
			"type":"VEC3"
		},
		{
			"bufferView":5,
			"componentType":5126,
			"count":240,
			"type":"VEC3"
		},
		{
			"bufferView":6,
			"componentType":5126,
			"count":240,
			"type":"VEC2"
		},
		{
			"bufferView":7,
			"componentType":5126,
			"count":240,
			"max":[
				0.9510578513145447,
				1,
				0.9999999403953552
			],
			"min":[
				-0.9510578513145447,
				-1,
				-0.9999999403953552
			],
			"type":"VEC3"
		},
		{
			"bufferView":8,
			"componentType":5126,
			"count":240,
			"type":"VEC3"
		},
		{
			"bufferView":9,
			"componentType":5126,
			"count":240,
			"type":"VEC2"
		},
		{
			"bufferView":10,
			"componentType":5126,
			"count":240,
			"max":[
				0.7132909297943115,
				0.7499974370002747,
				0.7499999403953552
			],
			"min":[
				-0.7132909297943115,
				-0.7499974370002747,
				-0.7499999403953552
			],
			"type":"VEC3"
		},
		{
			"bufferView":11,
			"componentType":5126,
			"count":240,
			"type":"VEC3"
		},
		{
			"bufferView":12,
			"componentType":5126,
			"count":240,
			"type":"VEC2"
		},
		{
			"bufferView":13,
			"componentType":5126,
			"count":240,
			"max":[
				0.9510578513145447,
				1,
				0.9999999403953552
			],
			"min":[
				-0.9510578513145447,
				-1,
				-0.9999999403953552
			],
			"type":"VEC3"
		},
		{
			"bufferView":14,
			"componentType":5126,
			"count":240,
			"type":"VEC3"
		},
		{
			"bufferView":15,
			"componentType":5126,
			"count":240,
			"type":"VEC2"
		},
		{
			"bufferView":16,
			"componentType":5126,
			"count":240,
			"max":[
				0.7132909297943115,
				0.7499974370002747,
				0.7499999403953552
			],
			"min":[
				-0.7132909297943115,
				-0.7499974370002747,
				-0.7499999403953552
			],
			"type":"VEC3"
		},
		{
			"bufferView":17,
			"componentType":5126,
			"count":240,
			"type":"VEC3"
		},
		{
			"bufferView":18,
			"componentType":5126,
			"count":240,
			"type":"VEC2"
		},
		{
			"bufferView":19,
			"componentType":5126,
			"count":240,
			"max":[
				0.9510578513145447,
				1,
				0.9999999403953552
			],
			"min":[
				-0.9510578513145447,
				-1,
				-0.9999999403953552
			],
			"type":"VEC3"
		},
		{
			"bufferView":20,
			"componentType":5126,
			"count":240,
			"type":"VEC3"
		},
		{
			"bufferView":21,
			"componentType":5126,
			"count":240,
			"type":"VEC2"
		},
		{
			"bufferView":22,
			"componentType":5126,
			"count":240,
			"max":[
				0.7132909297943115,
				0.7499974370002747,
				0.7499999403953552
			],
			"min":[
				-0.7132909297943115,
				-0.7499974370002747,
				-0.7499999403953552
			],
			"type":"VEC3"
		},
		{
			"bufferView":23,
			"componentType":5126,
			"count":240,
			"type":"VEC3"
		},
		{
			"bufferView":24,
			"componentType":5126,
			"count":240,
			"type":"VEC2"
		},
		{
			"bufferView":25,
			"componentType":5126,
			"count":240,
			"max":[
				0.9510578513145447,
				1,
				0.9999999403953552
			],
			"min":[
				-0.9510578513145447,
				-1,
				-0.9999999403953552
			],
			"type":"VEC3"
		},
		{
			"bufferView":26,
			"componentType":5126,
			"count":240,
			"type":"VEC3"
		},
		{
			"bufferView":27,
			"componentType":5126,
			"count":240,
			"type":"VEC2"
		},
		{
			"bufferView":28,
			"componentType":5126,
			"count":240,
			"max":[
				0.7132909297943115,
				0.7499974370002747,
				0.7499999403953552
			],
			"min":[
				-0.7132909297943115,
				-0.7499974370002747,
				-0.7499999403953552
			],
			"type":"VEC3"
		},
		{
			"bufferView":29,
			"componentType":5126,
			"count":240,
			"type":"VEC3"
		},
		{
			"bufferView":30,
			"componentType":5126,
			"count":240,
			"type":"VEC2"
		},
		{
			"bufferView":31,
			"componentType":5126,
			"count":240,
			"max":[
				0.9510578513145447,
				1,
				0.9999999403953552
			],
			"min":[
				-0.9510578513145447,
				-1,
				-0.9999999403953552
			],
			"type":"VEC3"
		},
		{
			"bufferView":32,
			"componentType":5126,
			"count":240,
			"type":"VEC3"
		},
		{
			"bufferView":33,
			"componentType":5126,
			"count":240,
			"type":"VEC2"
		},
		{
			"bufferView":34,
			"componentType":5126,
			"count":240,
			"max":[
				0.7132909297943115,
				0.7499974370002747,
				0.7499999403953552
			],
			"min":[
				-0.7132909297943115,
				-0.7499974370002747,
				-0.7499999403953552
			],
			"type":"VEC3"
		},
		{
			"bufferView":35,
			"componentType":5126,
			"count":240,
			"type":"VEC3"
		},
		{
			"bufferView":36,
			"componentType":5126,
			"count":240,
			"type":"VEC2"
		},
		{
			"bufferView":37,
			"componentType":5126,
			"count":240,
			"max":[
				0.9510578513145447,
				1,
				0.9999999403953552
			],
			"min":[
				-0.9510578513145447,
				-1,
				-0.9999999403953552
			],
			"type":"VEC3"
		},
		{
			"bufferView":38,
			"componentType":5126,
			"count":240,
			"type":"VEC3"
		},
		{
			"bufferView":39,
			"componentType":5126,
			"count":240,
			"type":"VEC2"
		},
		{
			"bufferView":40,
			"componentType":5126,
			"count":240,
			"max":[
				0.7132909297943115,
				0.7499974370002747,
				0.7499999403953552
			],
			"min":[
				-0.7132909297943115,
				-0.7499974370002747,
				-0.7499999403953552
			],
			"type":"VEC3"
		},
		{
			"bufferView":41,
			"componentType":5126,
			"count":240,
			"type":"VEC3"
		},
		{
			"bufferView":42,
			"componentType":5126,
			"count":240,
			"type":"VEC2"
		},
		{
			"bufferView":43,
			"componentType":5126,
			"count":240,
			"max":[
				0.9510578513145447,
				1,
				0.9999999403953552
			],
			"min":[
				-0.9510578513145447,
				-1,
				-0.9999999403953552
			],
			"type":"VEC3"
		},
		{
			"bufferView":44,
			"componentType":5126,
			"count":240,
			"type":"VEC3"
		},
		{
			"bufferView":45,
			"componentType":5126,
			"count":240,
			"type":"VEC2"
		},
		{
			"bufferView":46,
			"componentType":5126,
			"count":240,
			"max":[
				0.7132909297943115,
				0.7499974370002747,
				0.7499999403953552
			],
			"min":[
				-0.7132909297943115,
				-0.7499974370002747,
				-0.7499999403953552
			],
			"type":"VEC3"
		},
		{
			"bufferView":47,
			"componentType":5126,
			"count":240,
			"type":"VEC3"
		},
		{
			"bufferView":48,
			"componentType":5126,
			"count":240,
			"type":"VEC2"
		},
		{
			"bufferView":49,
			"componentType":5126,
			"count":240,
			"max":[
				0.9510578513145447,
				1,
				0.9999999403953552
			],
			"min":[
				-0.9510578513145447,
				-1,
				-0.9999999403953552
			],
			"type":"VEC3"
		},
		{
			"bufferView":50,
			"componentType":5126,
			"count":240,
			"type":"VEC3"
		},
		{
			"bufferView":51,
			"componentType":5126,
			"count":240,
			"type":"VEC2"
		},
		{
			"bufferView":52,
			"componentType":5126,
			"count":240,
			"max":[
				0.7132909297943115,
				0.7499974370002747,
				0.7499999403953552
			],
			"min":[
				-0.7132909297943115,
				-0.7499974370002747,
				-0.7499999403953552
			],
			"type":"VEC3"
		},
		{
			"bufferView":53,
			"componentType":5126,
			"count":240,
			"type":"VEC3"
		},
		{
			"bufferView":54,
			"componentType":5126,
			"count":240,
			"type":"VEC2"
		}
	],
	"bufferViews":[
		{
			"buffer":0,
			"byteLength":2880,
			"byteOffset":0,
			"target":34962
		},
		{
			"buffer":0,
			"byteLength":2880,
			"byteOffset":2880,
			"target":34962
		},
		{
			"buffer":0,
			"byteLength":1920,
			"byteOffset":5760,
			"target":34962
		},
		{
			"buffer":0,
			"byteLength":480,
			"byteOffset":7680,
			"target":34963
		},
		{
			"buffer":0,
			"byteLength":2880,
			"byteOffset":8160,
			"target":34962
		},
		{
			"buffer":0,
			"byteLength":2880,
			"byteOffset":11040,
			"target":34962
		},
		{
			"buffer":0,
			"byteLength":1920,
			"byteOffset":13920,
			"target":34962
		},
		{
			"buffer":0,
			"byteLength":2880,
			"byteOffset":15840,
			"target":34962
		},
		{
			"buffer":0,
			"byteLength":2880,
			"byteOffset":18720,
			"target":34962
		},
		{
			"buffer":0,
			"byteLength":1920,
			"byteOffset":21600,
			"target":34962
		},
		{
			"buffer":0,
			"byteLength":2880,
			"byteOffset":23520,
			"target":34962
		},
		{
			"buffer":0,
			"byteLength":2880,
			"byteOffset":26400,
			"target":34962
		},
		{
			"buffer":0,
			"byteLength":1920,
			"byteOffset":29280,
			"target":34962
		},
		{
			"buffer":0,
			"byteLength":2880,
			"byteOffset":31200,
			"target":34962
		},
		{
			"buffer":0,
			"byteLength":2880,
			"byteOffset":34080,
			"target":34962
		},
		{
			"buffer":0,
			"byteLength":1920,
			"byteOffset":36960,
			"target":34962
		},
		{
			"buffer":0,
			"byteLength":2880,
			"byteOffset":38880,
			"target":34962
		},
		{
			"buffer":0,
			"byteLength":2880,
			"byteOffset":41760,
			"target":34962
		},
		{
			"buffer":0,
			"byteLength":1920,
			"byteOffset":44640,
			"target":34962
		},
		{
			"buffer":0,
			"byteLength":2880,
			"byteOffset":46560,
			"target":34962
		},
		{
			"buffer":0,
			"byteLength":2880,
			"byteOffset":49440,
			"target":34962
		},
		{
			"buffer":0,
			"byteLength":1920,
			"byteOffset":52320,
			"target":34962
		},
		{
			"buffer":0,
			"byteLength":2880,
			"byteOffset":54240,
			"target":34962
		},
		{
			"buffer":0,
			"byteLength":2880,
			"byteOffset":57120,
			"target":34962
		},
		{
			"buffer":0,
			"byteLength":1920,
			"byteOffset":60000,
			"target":34962
		},
		{
			"buffer":0,
			"byteLength":2880,
			"byteOffset":61920,
			"target":34962
		},
		{
			"buffer":0,
			"byteLength":2880,
			"byteOffset":64800,
			"target":34962
		},
		{
			"buffer":0,
			"byteLength":1920,
			"byteOffset":67680,
			"target":34962
		},
		{
			"buffer":0,
			"byteLength":2880,
			"byteOffset":69600,
			"target":34962
		},
		{
			"buffer":0,
			"byteLength":2880,
			"byteOffset":72480,
			"target":34962
		},
		{
			"buffer":0,
			"byteLength":1920,
			"byteOffset":75360,
			"target":34962
		},
		{
			"buffer":0,
			"byteLength":2880,
			"byteOffset":77280,
			"target":34962
		},
		{
			"buffer":0,
			"byteLength":2880,
			"byteOffset":80160,
			"target":34962
		},
		{
			"buffer":0,
			"byteLength":1920,
			"byteOffset":83040,
			"target":34962
		},
		{
			"buffer":0,
			"byteLength":2880,
			"byteOffset":84960,
			"target":34962
		},
		{
			"buffer":0,
			"byteLength":2880,
			"byteOffset":87840,
			"target":34962
		},
		{
			"buffer":0,
			"byteLength":1920,
			"byteOffset":90720,
			"target":34962
		},
		{
			"buffer":0,
			"byteLength":2880,
			"byteOffset":92640,
			"target":34962
		},
		{
			"buffer":0,
			"byteLength":2880,
			"byteOffset":95520,
			"target":34962
		},
		{
			"buffer":0,
			"byteLength":1920,
			"byteOffset":98400,
			"target":34962
		},
		{
			"buffer":0,
			"byteLength":2880,
			"byteOffset":100320,
			"target":34962
		},
		{
			"buffer":0,
			"byteLength":2880,
			"byteOffset":103200,
			"target":34962
		},
		{
			"buffer":0,
			"byteLength":1920,
			"byteOffset":106080,
			"target":34962
		},
		{
			"buffer":0,
			"byteLength":2880,
			"byteOffset":108000,
			"target":34962
		},
		{
			"buffer":0,
			"byteLength":2880,
			"byteOffset":110880,
			"target":34962
		},
		{
			"buffer":0,
			"byteLength":1920,
			"byteOffset":113760,
			"target":34962
		},
		{
			"buffer":0,
			"byteLength":2880,
			"byteOffset":115680,
			"target":34962
		},
		{
			"buffer":0,
			"byteLength":2880,
			"byteOffset":118560,
			"target":34962
		},
		{
			"buffer":0,
			"byteLength":1920,
			"byteOffset":121440,
			"target":34962
		},
		{
			"buffer":0,
			"byteLength":2880,
			"byteOffset":123360,
			"target":34962
		},
		{
			"buffer":0,
			"byteLength":2880,
			"byteOffset":126240,
			"target":34962
		},
		{
			"buffer":0,
			"byteLength":1920,
			"byteOffset":129120,
			"target":34962
		},
		{
			"buffer":0,
			"byteLength":2880,
			"byteOffset":131040,
			"target":34962
		},
		{
			"buffer":0,
			"byteLength":2880,
			"byteOffset":133920,
			"target":34962
		},
		{
			"buffer":0,
			"byteLength":1920,
			"byteOffset":136800,
			"target":34962
		}
	],
	"buffers":[
		{
			"byteLength":138720,
			"uri":"DDOS.bin"
		}
	]
}
