{
	"asset":{
		"generator":"Khronos glTF Blender I/O v5.1.18",
		"version":"2.0"
	},
	"scene":0,
	"scenes":[
		{
			"name":"Scene",
			"nodes":[
				0,
				1,
				2
			]
		}
	],
	"nodes":[
		{
			"mesh":0,
			"name":"\u73af\u4f53.001",
			"rotation":[
				0,
				0,
				0.7071066498756409,
				0.70710688829422
			],
			"scale":[
				0.24205848574638367,
				0.24205848574638367,
				0.24205848574638367
			],
			"translation":[
				0.5073009729385376,
				0.004373133182525635,
				0.002684757113456726
			]
		},
		{
			"mesh":1,
			"name":"\u73af\u4f53.002",
			"rotation":[
				0,
				0,
				0.7071066498756409,
				0.70710688829422
			],
			"scale":[
				0.502187967300415,
				0.502187967300415,
				0.502187967300415
			],
			"translation":[
				0.5073009729385376,
				0.004373133182525635,
				0.002684757113456726
			]
		},
		{
			"mesh":2,
			"name":"\u7acb\u65b9\u4f53",
			"scale":[
				0.502187967300415,
				0.502187967300415,
				0.502187967300415
			],
			"translation":[
				0.5073009729385376,
				0.004373133182525635,
				0.002684757113456726
			]
		}
	],
	"materials":[
		{
			"doubleSided":true,
			"name":"\u6750\u8d28",
			"pbrMetallicRoughness":{
				"baseColorFactor":[
					0.8000074625015259,
					0,
					0.002299871062859893,
					1
				],
				"metallicFactor":0,
				"roughnessFactor":0.4357142746448517
			}
		}
	],
	"meshes":[
		{
			"name":"\u73af\u4f53.001",
			"primitives":[
				{
					"attributes":{
						"POSITION":0,
						"NORMAL":1,
						"TEXCOORD_0":2
					},
					"indices":3,
					"material":0
				}
			]
		},
		{
			"name":"\u73af\u4f53.002",
			"primitives":[
				{
					"attributes":{
						"POSITION":4,
						"NORMAL":5,
						"TEXCOORD_0":6
					},
					"indices":3,
					"material":0
				}
			]
		},
		{
			"name":"\u7acb\u65b9\u4f53",
			"primitives":[
				{
					"attributes":{
						"POSITION":7,
						"NORMAL":8,
						"TEXCOORD_0":9
					},
					"indices":10,
					"material":0
				}
			]
		}
	],
	"accessors":[
		{
			"bufferView":0,
			"componentType":5126,
			"count":2304,
			"max":[
				1.25,
				0.25,
				1.25
			],
			"min":[
				-1.25,
				-0.25,
				-1.25
			],
			"type":"VEC3"
		},
		{
			"bufferView":1,
			"componentType":5126,
			"count":2304,
			"type":"VEC3"
		},
		{
			"bufferView":2,
			"componentType":5126,
			"count":2304,
			"type":"VEC2"
		},
		{
			"bufferView":3,
			"componentType":5123,
			"count":3456,
			"type":"SCALAR"
		},
		{
			"bufferView":4,
			"componentType":5126,
			"count":2304,
			"max":[
				0.9470001459121704,
				0.12699997425079346,
				0.9470001459121704
			],
			"min":[
				-0.9470001459121704,
				-0.12699997425079346,
				-0.9470001459121704
			],
			"type":"VEC3"
		},
		{
			"bufferView":5,
			"componentType":5126,
			"count":2304,
			"type":"VEC3"
		},
		{
			"bufferView":6,
			"componentType":5126,
			"count":2304,
			"type":"VEC2"
		},
		{
			"bufferView":7,
			"componentType":5126,
			"count":64,
			"max":[
				0.09871160238981247,
				1.3837246894836426,
				1.374707579612732
			],
			"min":[
				-0.09871160238981247,
				-1.3656905889511108,
				-1.3747076988220215
			],
			"type":"VEC3"
		},
		{
			"bufferView":8,
			"componentType":5126,
			"count":64,
			"type":"VEC3"
		},
		{
			"bufferView":9,
			"componentType":5126,
			"count":64,
			"type":"VEC2"
		},
		{
			"bufferView":10,
			"componentType":5123,
			"count":120,
			"type":"SCALAR"
		}
	],
	"bufferViews":[
		{
			"buffer":0,
			"byteLength":27648,
			"byteOffset":0,
			"target":34962
		},
		{
			"buffer":0,
			"byteLength":27648,
			"byteOffset":27648,
			"target":34962
		},
		{
			"buffer":0,
			"byteLength":18432,
			"byteOffset":55296,
			"target":34962
		},
		{
			"buffer":0,
			"byteLength":6912,
			"byteOffset":73728,
			"target":34963
		},
		{
			"buffer":0,
			"byteLength":27648,
			"byteOffset":80640,
			"target":34962
		},
		{
			"buffer":0,
			"byteLength":27648,
			"byteOffset":108288,
			"target":34962
		},
		{
			"buffer":0,
			"byteLength":18432,
			"byteOffset":135936,
			"target":34962
		},
		{
			"buffer":0,
			"byteLength":768,
			"byteOffset":154368,
			"target":34962
		},
		{
			"buffer":0,
			"byteLength":768,
			"byteOffset":155136,
			"target":34962
		},
		{
			"buffer":0,
			"byteLength":512,
			"byteOffset":155904,
			"target":34962
		},
		{
			"buffer":0,
			"byteLength":240,
			"byteOffset":156416,
			"target":34963
		}
	],
	"buffers":[
		{
			"byteLength":156656,
			"uri":"Target.bin"
		}
	]
}
